<svg width="20" height="20" viewBox="0 0 20 20" fill="none" xmlns="http://www.w3.org/2000/svg">
<g clip-path="url(#clip0_3482_1536)">
<path d="M4.16676 10.8334L13.4751 10.8334L9.40843 14.9001C9.08343 15.2251 9.08343 15.7584 9.40843 16.0834C9.73343 16.4084 10.2584 16.4084 10.5834 16.0834L16.0751 10.5917C16.4001 10.2667 16.4001 9.74173 16.0751 9.41673L10.5834 3.92507C10.2584 3.60007 9.73343 3.60007 9.40843 3.92507C9.08343 4.25006 9.08343 4.77507 9.40843 5.10007L13.4751 9.16673L4.16676 9.16673C3.70843 9.16673 3.33343 9.54173 3.33343 10.0001C3.33343 10.4584 3.70843 10.8334 4.16676 10.8334Z" fill="currentColor"/>
</g>
<defs>
<clipPath id="clip0_3482_1536">
<rect width="20" height="20" fill="white" transform="matrix(-1 0 0 -1 20 20)"/>
</clipPath>
</defs>
</svg>
