<svg width="55" height="55" viewBox="0 0 55 55" fill="none" xmlns="http://www.w3.org/2000/svg">
<path d="M24.4922 37.3828C23.1315 35.9505 22.4512 34.196 22.4512 32.1191C22.4512 30.0423 23.1673 28.2878 24.5996 26.8555C26.0319 25.4232 27.7507 24.707 29.7559 24.707C31.8327 24.707 33.5872 25.4232 35.0195 26.8555C36.4518 28.2878 37.168 30.0423 37.168 32.1191C37.168 34.1243 36.4518 35.8431 35.0195 37.2754C33.5872 38.7077 31.8327 39.4238 29.7559 39.4238C27.679 39.4238 25.9245 38.7435 24.4922 37.3828ZM21.6992 40.1758C23.9193 42.3958 26.6048 43.5059 29.7559 43.5059C32.9069 43.5059 35.5924 42.3958 37.8125 40.1758C40.1042 37.9557 41.25 35.2702 41.25 32.1191C41.25 28.9681 40.1042 26.2826 37.8125 24.0625C35.5924 21.7708 32.9069 20.625 29.7559 20.625C26.6048 20.625 23.9193 21.7708 21.6992 24.0625C19.4792 26.2826 18.3691 28.9681 18.3691 32.1191C18.3691 35.2702 19.4792 37.9557 21.6992 40.1758ZM13.75 22.8809V16.0059H20.625V9.13086H36.6309L40.8203 13.75H48.125C49.3424 13.75 50.4167 14.2155 51.3477 15.1465C52.2786 16.0775 52.7441 17.1517 52.7441 18.3691V45.8691C52.7441 47.0866 52.2786 48.1608 51.3477 49.0918C50.4167 49.9512 49.3424 50.3809 48.125 50.3809H11.4941C10.2767 50.3809 9.20247 49.9512 8.27148 49.0918C7.3405 48.1608 6.875 47.0866 6.875 45.8691V22.8809H13.75ZM6.875 9.13086V2.25586H11.4941V9.13086H18.3691V13.75H11.4941V20.625H6.875V13.75H0V9.13086H6.875Z" fill="#B8F1F1"/>
</svg>
