<svg width="24" height="24" viewBox="0 0 24 24" fill="none" xmlns="http://www.w3.org/2000/svg">
<g clip-path="url(#clip0_3724_11123)">
<path d="M19.9838 22.8765C19.8676 21.9096 18.7991 21.7999 18.1778 21.8665C17.5164 19.376 19.8235 15.664 19.9592 14.7847C20.1051 13.8402 19.2839 8.34403 19.1972 5.56104C19.1081 2.7041 14.9587 -0.449815 14.266 0.0529657C13.5795 0.812056 15.2547 1.83659 14.3729 2.71496C13.5211 3.56361 13.2989 4.13394 12.6664 5.09447C11.046 7.55461 15.4373 7.58535 15.4373 7.58535C15.4373 7.58535 12.0007 10.1324 11.236 11.4161C10.5318 12.5983 10.2365 13.921 9.38674 15.0359C7.45007 17.5768 7.88651 22.007 7.88651 22.007C7.88651 22.007 4.21785 20.8061 6.23688 16.6178C7.77383 13.4296 8.53089 8.72469 5.07309 9.93473C3.73535 10.4029 5.3722 11.3877 5.65468 11.7031C6.59979 12.758 5.80084 14.5326 5.23132 15.5586C3.70614 18.3064 3.15244 21.1854 6.36265 22.9607C7.78904 23.7494 9.71537 23.9445 11.6542 23.9731L16.5877 23.9873C18.2129 24.0682 20.0513 23.7643 19.9838 22.8765Z" fill="currentColor"/>
</g>
</svg>
