<svg width="10" height="10" viewBox="0 0 10 10" fill="none" xmlns="http://www.w3.org/2000/svg">
<g clip-path="url(#clip0_606_347)">
<rect width="10" height="10" rx="5" fill="#FF4242"/>
<path d="M7.62505 2.37897C7.46255 2.21647 7.20005 2.21647 7.03755 2.37897L5.00005 4.4123L2.96255 2.3748C2.80005 2.2123 2.53755 2.2123 2.37505 2.3748C2.21255 2.5373 2.21255 2.7998 2.37505 2.9623L4.41255 4.9998L2.37505 7.0373C2.21255 7.1998 2.21255 7.4623 2.37505 7.6248C2.53755 7.7873 2.80005 7.7873 2.96255 7.6248L5.00005 5.5873L7.03755 7.6248C7.20005 7.7873 7.46255 7.7873 7.62505 7.6248C7.78755 7.4623 7.78755 7.1998 7.62505 7.0373L5.58755 4.9998L7.62505 2.9623C7.78338 2.80397 7.78338 2.5373 7.62505 2.37897Z" fill="white"/>
</g>
<defs>
<clipPath id="clip0_606_347">
<rect width="10" height="10" rx="5" fill="white"/>
</clipPath>
</defs>
</svg>
