<svg width="24" height="24" viewBox="0 0 24 24" fill="none" xmlns="http://www.w3.org/2000/svg">
<g clip-path="url(#clip0_3724_11130)">
<path d="M23.1905 5.52762L20.7398 4.53889C20.5902 3.74778 19.989 3.1144 19.2153 2.91781L19.0828 1.3906C19.0639 1.17275 18.9177 0.986798 18.7105 0.917012C18.5032 0.847227 18.2743 0.906746 18.1274 1.0688L17.4863 1.77595L17.0929 0.399121C17.0274 0.169844 16.8216 0.00888534 16.5832 0.000574637C16.345 -0.00681944 16.1284 0.138557 16.0471 0.362823L12.6534 9.72519C10.2121 10.3591 8.08036 11.9213 6.77099 14.047C5.57169 15.994 5.19917 18.2247 5.72207 20.3281C6.02768 21.5574 6.6079 22.3674 7.20144 22.8986H6.73463C6.73023 22.8986 6.72583 22.8986 6.72143 22.8987C4.5133 22.9526 2.46697 21.6972 1.51142 19.7024C1.38023 19.4284 1.05177 19.3128 0.777822 19.4439C0.503875 19.5752 0.388197 19.9036 0.519457 20.1775C1.63835 22.5135 4.00738 24.0003 6.58663 24.0003C6.63808 24.0003 17.0868 24.0003 17.0868 24.0003C17.3905 24.0003 17.6367 23.7541 17.6367 23.4503C17.6367 21.9699 16.4559 21.2951 15.4138 21.0475C15.9011 20.0975 15.9432 19.262 15.8879 18.7155L16.0317 18.6963L19.328 23.7507C19.4296 23.9064 19.6028 24.0002 19.7887 24.0002H21.7903C21.9906 24.0002 22.175 23.8913 22.2718 23.716C22.3686 23.5407 22.3623 23.3266 22.2556 23.1571C22.2343 23.1234 20.1678 19.8422 19.0568 18.0052V8.76408C19.2204 8.7829 19.404 8.79238 19.5662 8.79238C21.1616 8.79238 22.6621 7.89225 23.4701 6.29623C23.4707 6.29495 23.4914 6.25169 23.4947 6.24338C23.6084 5.96173 23.4722 5.64122 23.1905 5.52762Z" fill="currentColor"/>
</g>
<defs>
<clipPath id="clip0_3724_11130">
<rect width="24" height="24" fill="white"/>
</clipPath>
</defs>
</svg>
