<svg width="22" height="16" viewBox="0 0 22 16" fill="none" xmlns="http://www.w3.org/2000/svg">
<path d="M11.0001 0.5C6.00014 0.5 1.73014 3.61 0.000137329 8C1.73014 12.39 6.00014 15.5 11.0001 15.5C16.0001 15.5 20.2701 12.39 22.0001 8C20.2701 3.61 16.0001 0.5 11.0001 0.5ZM11.0001 13C8.24014 13 6.00014 10.76 6.00014 8C6.00014 5.24 8.24014 3 11.0001 3C13.7601 3 16.0001 5.24 16.0001 8C16.0001 10.76 13.7601 13 11.0001 13ZM11.0001 5C9.34014 5 8.00014 6.34 8.00014 8C8.00014 9.66 9.34014 11 11.0001 11C12.6601 11 14.0001 9.66 14.0001 8C14.0001 6.34 12.6601 5 11.0001 5Z" fill="#E0E0E0"/>
</svg>
