<svg width="20" height="18" viewBox="0 0 20 18" fill="none" xmlns="http://www.w3.org/2000/svg">
<path d="M17.66 0.989677C15.02 -0.810322 11.76 0.0296776 9.99997 2.08968C8.23997 0.0296776 4.97997 -0.820322 2.33997 0.989677C0.939969 1.94968 0.0599691 3.56968 -3.09171e-05 5.27968C-0.140031 9.15968 3.29997 12.2697 8.54997 17.0397L8.64997 17.1297C9.40997 17.8197 10.58 17.8197 11.34 17.1197L11.45 17.0197C16.7 12.2597 20.13 9.14968 20 5.26968C19.94 3.56968 19.06 1.94968 17.66 0.989677ZM10.1 15.5497L9.99997 15.6497L9.89997 15.5497C5.13997 11.2397 1.99997 8.38968 1.99997 5.49968C1.99997 3.49968 3.49997 1.99968 5.49997 1.99968C7.03997 1.99968 8.53997 2.98968 9.06997 4.35968H10.94C11.46 2.98968 12.96 1.99968 14.5 1.99968C16.5 1.99968 18 3.49968 18 5.49968C18 8.38968 14.86 11.2397 10.1 15.5497Z" fill="#800080"/>
</svg>
