<svg width="16" height="16" viewBox="0 0 16 16" fill="none" xmlns="http://www.w3.org/2000/svg">
<path d="M3.80938 11.01H12.1906L9.49063 7.40996L7.40938 10.11L5.89063 8.30996L3.80938 11.01ZM13.4 2.60059C13.7 2.60059 13.9719 2.73184 14.2156 2.99434C14.4781 3.23809 14.6094 3.50996 14.6094 3.80996V12.1912C14.6094 12.4912 14.4781 12.7725 14.2156 13.035C13.9719 13.2787 13.7 13.4006 13.4 13.4006H2.6C2.28125 13.4006 2 13.2787 1.75625 13.035C1.5125 12.7912 1.39062 12.51 1.39062 12.1912V3.80996C1.39062 3.50996 1.5125 3.23809 1.75625 2.99434C2.01875 2.73184 2.3 2.60059 2.6 2.60059H13.4Z" fill="#B8F1F1"/>
</svg>
