<svg width="19" height="18" viewBox="0 0 19 18" fill="none" xmlns="http://www.w3.org/2000/svg">
<path d="M9.86374 7.84147V2.93367L11.1807 4.22281C11.3983 4.44897 11.7647 4.44897 11.9823 4.22281C12.2114 4.00795 12.2114 3.64609 11.9823 3.43123L9.69196 1.16959C9.47437 0.943468 9.10799 0.943468 8.89037 1.16959L6.6 3.43123C6.37096 3.64609 6.37096 4.00795 6.6 4.22281C6.81759 4.44897 7.18397 4.44897 7.40159 4.22281L8.71859 2.93367V7.84147C6.15334 8.12417 4.13782 10.2614 4.13782 12.8736C4.13782 15.678 6.45113 18 9.29114 18C12.1312 18 14.4826 15.678 14.4826 12.8736C14.4826 10.2614 12.4289 8.12417 9.86374 7.84147ZM9.29114 16.8692C7.08094 16.8692 5.283 15.0561 5.283 12.8736C5.283 10.6911 7.08094 8.91575 9.29114 8.91575C11.5013 8.91575 13.3375 10.6911 13.3375 12.8736C13.3375 15.0561 11.5013 16.8692 9.29114 16.8692Z" fill="currentColor"/>
</svg>
