<svg width="19" height="18" viewBox="0 0 19 18" fill="none" xmlns="http://www.w3.org/2000/svg">
<path d="M14.4826 6.12639C14.4826 3.32191 12.1693 1 9.32932 1C6.4893 1 4.13782 3.32191 4.13782 6.12639C4.13782 8.73858 6.19151 10.8758 8.75673 11.1585V14.6075H7.03895C6.71826 14.6075 6.46636 14.8563 6.46636 15.1729C6.46636 15.4895 6.71826 15.7384 7.03895 15.7384H8.75673V17.4346C8.75673 17.7512 9.00863 18 9.32932 18C9.65001 18 9.90191 17.7512 9.90191 17.4346V15.7384H11.6197C11.9404 15.7384 12.1923 15.4895 12.1923 15.1729C12.1923 14.8563 11.9404 14.6075 11.6197 14.6075H9.90191V11.1585C12.4671 10.8758 14.4826 8.73858 14.4826 6.12639ZM9.32932 10.0843C7.11911 10.0843 5.283 8.30887 5.283 6.12639C5.283 3.9439 7.11911 2.13082 9.32932 2.13082C11.5395 2.13082 13.3375 3.9439 13.3375 6.12639C13.3375 8.30887 11.5395 10.0843 9.32932 10.0843Z" fill="currentColor"/>
</svg>
