<svg width="220" height="220" viewBox="0 0 220 220" fill="none" xmlns="http://www.w3.org/2000/svg">
<rect width="220" height="220" fill="white"/>
<path fill-rule="evenodd" clip-rule="evenodd" d="M119.516 43.005C145.932 43.3203 168.02 60.5455 176.067 83.905C183.994 106.917 175.465 131.395 155.179 146.53C130.917 164.631 97.5986 178.123 72.2429 161.364C46.3982 144.282 47.2752 110.114 58.3047 82.4993C67.855 58.5879 92.0469 42.6771 119.516 43.005Z" fill="#F2CAF2"/>
<path d="M47.8068 110.932L47.6463 112.537C47.5495 113.505 47.6207 114.483 47.8567 115.427L48.1671 116.669C48.3886 117.555 48.6865 118.42 49.0574 119.254L49.979 121.328C50.3247 122.106 50.7763 122.832 51.3212 123.485C52.4186 124.802 53.8615 125.787 55.4879 126.329L57.1192 126.873C57.3728 126.958 57.62 127.06 57.859 127.18L59.2758 127.888C60.6041 128.552 62.2083 128.292 63.2584 127.242C63.4191 127.081 63.5952 126.937 63.7843 126.81L65.1372 125.909C66.0392 125.307 66.8323 124.557 67.4827 123.69C67.8269 123.231 68.129 122.742 68.3856 122.229L68.8506 121.299C69.2826 120.435 69.6335 119.533 69.8989 118.604L69.982 118.313C70.3256 117.11 70.5 115.865 70.5 114.614V114.211C70.5 113.738 70.4609 113.265 70.3831 112.798C70.1322 111.293 69.4851 109.882 68.5083 108.71L67.7453 107.794C67.5826 107.599 67.3926 107.428 67.1812 107.287L65.6119 106.241C65.0367 105.858 64.9561 105.044 65.4449 104.555C65.4816 104.518 65.5208 104.484 65.5623 104.453L66.9263 103.43C67.3036 103.147 67.6098 102.78 67.8207 102.359L67.8469 102.306C68.258 101.484 68.258 100.516 67.8469 99.6938C67.6196 99.2391 67.2775 98.8517 66.8546 98.5697L64.9959 97.3306C64.6662 97.1108 64.3146 96.9258 63.9467 96.7787L63.4608 96.5843C62.5176 96.207 61.4711 96.1763 60.5074 96.4975C59.5347 96.8218 58.71 97.4833 58.1825 98.3625L57.9059 98.8236C57.6373 99.2712 57.4477 99.7617 57.3453 100.274L57.1457 101.271C57.052 101.74 57.1363 102.227 57.3823 102.637C57.9762 103.627 57.5697 104.913 56.5148 105.382L54.4929 106.281C54.1659 106.426 53.8203 106.526 53.466 106.576L51.7471 106.822C50.9306 106.938 50.1603 107.272 49.5163 107.787C48.5466 108.563 47.9304 109.696 47.8068 110.932Z" fill="white"/>
<path d="M184.271 138.005C184.271 138.005 68.9159 138.066 23.2441 138.005C19.6594 130.19 24.1691 119.748 32.3158 117C29.7662 119.909 27.2166 122.817 24.667 125.726C29.1465 125.681 184.271 125.726 184.271 125.726V138.005Z" fill="white"/>
<path fill-rule="evenodd" clip-rule="evenodd" d="M147.36 138.355C90.0836 138.378 48.8095 138.372 23.5374 138.338C19.9527 130.523 107.849 133.814 141.18 133.814C174.51 133.814 159.09 138.351 147.36 138.355Z" fill="#E7EAEE"/>
<path fill-rule="evenodd" clip-rule="evenodd" d="M123.506 48.7497C123.913 48.2856 124.717 48.2513 125.162 48.679C123.724 45.8311 119.517 44.9773 118.613 41.9177C117.456 38.0009 115.75 34.247 113.559 30.8003C112.647 34.189 110.906 37.3512 108.529 39.9331C107.911 39.9359 107.293 39.9387 106.675 39.9415C105.27 39.9478 103.853 39.9555 102.481 40.2574C100.013 40.8007 97.8011 42.2725 95.3007 42.6387C95.486 42.4066 95.6713 42.1745 95.8566 41.9424C95.805 41.7029 95.4579 41.5933 95.2782 41.7598C94.9615 40.5 93.9413 39.5107 92.7838 38.921C91.6264 38.3313 89.9197 37.2337 86.5038 37.5224C90.6484 42.162 89.3648 61.4769 90.3845 65.1372C90.7322 65.2301 90.9984 64.8499 91.2246 64.57C91.4508 64.2901 91.9788 64.1181 92.101 64.4566C92.95 66.81 93.0707 70.4313 95.673 71.8335C96.1752 72.1041 96.4739 71.5986 96.4349 71.3523C96.3852 71.0377 96.763 70.7953 97.0779 70.8431C97.3928 70.8909 97.6445 71.119 97.8901 71.3217C102.03 74.7396 108.808 72.9778 112.952 76.3898C113.771 77.0639 114.492 77.9426 115.514 78.2263C116.124 78.3957 116.774 78.329 117.397 78.2173C121.107 77.5524 124.41 75.3513 126.986 72.6007C129.563 69.8501 131.487 66.5611 133.278 63.245C131.627 62.3105 129.893 61.2919 128.996 59.6207C128.29 58.3039 127.855 56.4164 126.37 56.2555C126.841 57.7859 127.312 59.3164 127.783 60.8468C127.956 61.4072 128.13 61.9916 128.039 62.5708C127.948 63.15 127.505 63.719 126.92 63.7484C126.125 63.7883 125.565 62.8889 124.776 62.7865C124.627 65.7466 123.49 68.6484 121.589 70.9227C120.93 71.7118 119.661 72.4284 118.992 71.6475C120.008 70.0062 121.024 68.365 122.04 66.7237C122.673 65.7009 123.323 64.6308 123.439 63.4335C123.555 62.2362 122.961 60.878 121.81 60.5289C121.759 60.2124 122.093 59.9405 122.413 59.931C122.734 59.9216 123.029 60.0913 123.304 60.2555C124.329 60.8668 125.354 61.478 126.379 62.0893C126.052 59.6593 125.383 57.2754 124.399 55.0298C125.352 54.9395 126.328 55.0852 127.213 55.4504C126.531 53.4777 125.281 51.705 123.652 50.4006C123.17 50.0147 123.099 49.2138 123.506 48.7497Z" fill="white"/>
<path fill-rule="evenodd" clip-rule="evenodd" d="M103.041 43.5128C103.885 44.0716 104.551 44.8956 104.92 45.8383C105.035 46.1314 105.361 46.2729 105.582 46.498C105.802 46.7231 105.838 47.2042 105.53 47.267C105.395 47.2945 105.262 47.2202 105.144 47.1496C103.251 46.0194 100.949 45.1068 98.8842 45.8787C99.2238 46.0522 99.3952 46.4972 99.2598 46.8536C99.6813 46.8688 100.074 47.0584 100.453 47.2442C100.786 47.4078 101.12 47.5715 101.453 47.7351C101.418 47.8336 101.383 47.932 101.348 48.0305C99.8408 47.2628 97.9992 47.183 96.4307 47.8173C96.952 47.8965 97.4831 47.911 98.0079 47.8603C98.7732 48.246 99.5385 48.6317 100.304 49.0174C100.474 49.1032 100.654 49.1976 100.749 49.3624C100.845 49.5272 100.809 49.7828 100.631 49.8508C99.2478 48.6313 97.2918 48.092 95.4795 48.4307C95.268 48.4702 95.1233 48.1752 95.2131 47.9797C95.3028 47.7841 95.518 47.6838 95.7182 47.605C96.7229 47.2094 97.7824 46.9536 98.8568 46.8471C98.3193 46.3488 97.6968 45.9426 97.0243 45.6513C96.9136 45.2726 97.46 44.9095 97.7663 45.1584C100.093 44.7022 102.586 45.1549 104.604 46.3999C104.621 46.004 104.327 45.6711 104.053 45.3856C103.194 44.4929 102.335 43.6002 101.477 42.7075C102.98 42.898 104.454 43.3214 105.83 43.9579C106.141 44.1018 106.448 44.2573 106.73 44.4524C107.791 45.1871 108.423 46.5013 108.333 47.7889C107.69 46.4302 106.673 45.251 105.423 44.4163C104.708 43.9392 103.898 43.5677 103.041 43.5128V43.5128Z" fill="#E7EAEE"/>
<path fill-rule="evenodd" clip-rule="evenodd" d="M48.382 107.733C46.2045 109.687 46.3946 113.145 47.1806 115.964C48.1916 119.59 49.9015 123.019 52.1885 126.009L24.9604 126.282L32.6092 117.556C24.4624 120.305 19.9527 130.747 23.5375 138.561C69.2092 138.622 114.881 138.529 160.552 138.281C152.222 143.911 144.147 150.741 140.276 160.02C136.405 169.299 138.008 181.499 146.237 187.276C149.302 189.427 152.982 190.53 156.662 191.227C160.456 191.945 165.05 191.975 167.392 188.905C168.76 187.112 168.106 184.298 167.459 181.516C167.008 179.574 166.561 177.648 166.805 176.094C167.635 170.825 171.182 168.153 175.23 165.103C176.08 164.463 176.953 163.806 177.827 163.104C185.289 157.115 193.843 149.543 196.021 140.226C198.01 131.716 195.821 123.274 190.132 116.639C188.083 114.25 185.565 112.076 183.034 109.891C179.633 106.954 176.21 103.998 173.872 100.474C172.444 98.3228 171.943 96.0227 171.418 93.6089C171.23 92.7425 171.038 91.8616 170.799 90.9676C167.732 79.4894 156.795 73.5876 145.533 67.5106L145.533 67.5105L145.533 67.5105L145.533 67.5104L145.533 67.5104C144.106 66.7408 142.675 65.9684 141.254 65.1814C134.736 61.573 128.158 56.9542 126.066 49.7239C127.22 49.7689 127.647 48.0343 126.982 47.09C126.488 46.3877 125.707 45.9925 124.927 45.5983C124.659 45.4624 124.39 45.3267 124.134 45.1785C121.754 43.8028 120.39 40.9962 118.993 38.1221C116.894 33.804 114.721 29.3335 108.919 29.3335C108.7 30.7985 108.927 32.1037 109.139 33.3265C109.466 35.2163 109.76 36.9095 108.324 38.6923C104.212 38.2363 99.9616 39.1355 96.3867 41.2174C94.3199 37.2936 89.0782 35.6175 84.8293 36.8878C85.3672 37.565 85.6863 37.9047 85.9508 38.1863L85.9508 38.1863L85.9509 38.1864L85.9509 38.1864C86.5097 38.7813 86.8249 39.1168 88.446 41.8277C90.8345 45.8218 89.3213 60.505 88.9433 62.8265C88.5653 65.148 90.354 66.7978 91.9901 65.6514C91.1932 69.0923 94.0644 72.376 97.595 72.475C98.8008 72.69 99.5502 73.2734 100.258 73.8247C100.699 74.1676 101.123 74.4981 101.632 74.7199C90.4216 82.7385 78.0112 89.0765 64.9428 93.4574L64.7129 93.5344C62.2677 94.3528 59.7117 95.2082 57.9804 97.1084C56.1947 99.0681 55.7754 102.547 57.8534 104.194C56.5846 105.344 54.8483 105.657 53.1114 105.97C51.3816 106.282 49.6513 106.593 48.382 107.733ZM164.191 123.251C162.168 125.163 158.207 125.263 155.423 125.251L119.326 125.104C118.283 123.718 118.928 121.588 120.276 120.496C121.623 119.404 123.436 119.11 125.165 118.974C130.745 118.532 136.419 119.334 141.658 121.304C143.129 121.565 144.246 119.709 143.891 118.258C143.535 116.807 142.299 115.769 141.15 114.814C137.442 111.733 133.806 108.264 132.065 103.768C130.26 99.1054 130.783 93.605 133.436 89.3669C128.983 93.0665 128.047 99.8669 130.047 105.3C132.047 110.733 136.439 114.959 141.198 118.257C138.599 118.79 135.9 118.196 133.23 117.608C129.993 116.896 126.797 116.193 123.866 117.514L123.262 101.027L121.695 115.478C121.578 116.553 121.24 117.882 120.178 118.082C117.295 118.624 115.586 122.399 117.081 124.923C115.793 125.793 113.828 125.404 112.968 124.109C112.108 122.815 112.511 120.853 113.811 120.002C116.965 117.939 117.215 113.494 117.129 109.725L116.537 83.7077C116.523 83.0796 116.665 82.254 117.287 82.1675C126.395 80.9021 134.492 74.0588 137.259 65.2896C145.33 68.9053 153.403 73.0743 159.916 78.8159C174.821 91.9551 170.733 102.88 169.663 105.738C169.476 106.239 169.381 106.492 169.497 106.466C170.241 106.3 170.593 105.463 170.799 104.73C171.28 103.017 171.593 101.257 171.732 99.4838C174.192 104.054 178.109 107.526 182.033 111.005C185.62 114.185 189.213 117.37 191.707 121.405C195.553 127.628 196.358 135.637 193.828 142.5C190.838 150.608 183.969 156.279 177.193 161.873L177.193 161.873L177.193 161.873L177.193 161.874L177.192 161.874L177.192 161.874C175.564 163.218 173.942 164.557 172.38 165.925C169.11 168.788 165.82 172.336 165.715 176.681C165.686 177.845 165.894 178.993 166.103 180.142C166.25 180.954 166.397 181.768 166.461 182.588C166.616 184.57 166.127 186.824 164.449 187.889C163.742 188.339 162.9 188.524 162.071 188.644C153.47 189.886 142.935 184.066 140.482 175.73C138.074 167.55 142.3 157.458 147.852 150.986C151.302 146.966 155.765 144.092 160.243 141.21C162.973 139.452 165.708 137.691 168.223 135.664C170.58 133.765 172.907 131.718 174.398 129.084C175.889 126.45 176.425 123.102 175.085 120.388C173.987 118.163 171.824 116.619 169.702 115.104C167.035 113.2 164.433 111.343 164.102 108.241C164.142 109.635 164.73 111.196 165.314 112.743C165.822 114.092 166.326 115.431 166.461 116.639C166.749 119.232 166.088 121.459 164.191 123.251ZM168.58 117.933C172.204 117.972 174.332 122.559 173.312 126.037C172.293 129.514 169.299 131.989 166.461 134.241C165.036 135.371 163.464 136.556 161.646 136.57L24.5665 137.595L23.9659 126.961L50.4035 126.936C53.8231 126.933 57.7005 127.128 59.9279 129.723C60.7378 130.667 62.1802 129.639 63.1684 128.885C65.5095 127.096 68.6883 127.009 71.634 126.997L168.356 126.605C169.394 126.6 170.789 126.252 170.755 125.215L164.251 124.971C166.587 123.363 168.199 120.743 168.58 117.933ZM67.988 125.782C69.4389 122.278 70.5396 118.629 71.2686 114.907C71.4733 113.862 71.6493 112.791 71.5102 111.735C71.0926 108.566 68.0831 106.48 65.3183 104.876C66.4985 104.852 67.505 104.018 68.2625 103.112C68.4733 102.86 68.6746 102.598 68.8759 102.336C69.3978 101.657 69.9198 100.977 70.6076 100.475C72.0185 99.4434 72.2445 99.4249 75.1592 99.1859C75.4593 99.1613 75.788 99.1343 76.1493 99.1037C78.7126 98.8865 84.9118 96.5508 89.4382 94.8454C91.7473 93.9754 93.6211 93.2695 94.3547 93.0924C104.394 90.6699 111.353 93.8415 112.92 95.551C113.775 96.4839 113.985 97.8217 114.157 99.0757C114.93 104.717 115.703 110.447 114.889 116.082C114.737 117.134 114.456 118.294 113.564 118.871C112.669 119.451 111.827 120.111 111.05 120.841C109.805 122.011 108.685 123.911 109.653 125.319L67.988 125.782ZM125.132 48.2605C124.686 47.8328 123.883 47.8671 123.476 48.3312C123.069 48.7953 123.139 49.5962 123.621 49.9821C125.251 51.2865 126.501 53.0591 127.183 55.0319C126.297 54.6667 125.322 54.5209 124.368 54.6113C125.353 56.8569 126.021 59.2407 126.348 61.6708L123.274 59.837C122.998 59.6728 122.703 59.5031 122.383 59.5125C122.062 59.522 121.728 59.7939 121.779 60.1104C122.931 60.4595 123.524 61.8176 123.408 63.0149C123.292 64.2123 122.643 65.2824 122.009 66.3052L118.962 71.229C119.631 72.0099 120.899 71.2933 121.559 70.5041C123.459 68.2299 124.596 65.3281 124.746 62.3679C125.112 62.4155 125.429 62.635 125.743 62.8525C126.105 63.1032 126.464 63.3513 126.889 63.3299C127.475 63.3005 127.918 62.7315 128.009 62.1523C128.1 61.5731 127.925 60.9887 127.753 60.4283L126.339 55.837C127.492 55.9618 128.011 57.1256 128.516 58.256L128.516 58.2561C128.662 58.5829 128.807 58.9069 128.966 59.2022C129.862 60.8733 131.597 61.892 133.247 62.8265C131.456 66.1426 129.532 69.4316 126.956 72.1821C124.379 74.9327 121.076 77.1339 117.367 77.7988C116.743 77.9104 116.094 77.9772 115.484 77.8078C114.72 77.5957 114.123 77.0509 113.529 76.5078C113.328 76.3245 113.128 76.1414 112.921 75.9712C110.85 74.2663 108.122 73.8532 105.394 73.4402C102.662 73.0267 99.9305 72.6132 97.8596 70.9032L97.8006 70.8543C97.5734 70.6652 97.3371 70.4686 97.0474 70.4246C96.7325 70.3768 96.3547 70.6192 96.4044 70.9337C96.4434 71.1801 96.1447 71.6855 95.6425 71.4149C93.706 70.3716 93.1437 68.0994 92.6329 66.0352C92.4573 65.3255 92.2877 64.6403 92.0704 64.0381C91.9483 63.6996 91.4202 63.8715 91.1941 64.1515L91.1574 64.1972L91.139 64.2202C90.9248 64.4892 90.6739 64.8041 90.354 64.7187C89.9721 63.3145 90.1052 61.7273 90.2339 60.1917C90.2863 59.5665 90.338 58.9498 90.354 58.3576C90.3554 58.304 90.372 58.1421 90.3979 57.8884C90.6937 54.9979 92.2101 40.1785 86.5039 37.5223C87.8606 37.2549 90.0501 37.5023 91.9901 38.6923C93.9528 39.8962 95.3634 42.1035 95.2702 42.2202C96.6258 42.0216 97.8967 41.4981 99.1696 40.9738C100.244 40.531 101.321 40.0877 102.451 39.8389C103.822 39.537 105.239 39.5293 106.644 39.523L108.499 39.5146C110.497 37.3437 110.42 34.9655 110.33 32.2076C110.313 31.6856 110.296 31.1498 110.292 30.5994C113.755 31.0542 117.426 37.5824 118.583 41.4991C119.066 43.1351 120.494 44.1404 121.937 45.1571C123.194 46.0419 124.462 46.9353 125.132 48.2605ZM66.1033 94.4428C66.4999 94.3421 66.8942 94.242 67.283 94.1391C73.2323 92.565 78.785 89.7948 84.2895 87.0431C90.8478 83.7646 97.5189 80.4072 102.78 75.3007C103.187 74.906 103.832 74.9333 104.394 75.0058C106.472 75.2737 108.516 75.8042 110.463 76.5808C111.483 76.9877 112.63 77.6865 112.637 78.7845C112.639 79.1711 112.491 79.5408 112.345 79.8987L111.365 82.3004C110.947 83.325 110.522 84.3878 110.558 85.4938C110.594 86.5998 111.222 87.7672 112.286 88.0711C113.35 88.3749 114.665 87.3851 114.39 86.3132C113.919 84.4776 113.597 82.604 113.427 80.7166C115.5 84.8225 114.785 89.7214 114.021 94.2571C111.277 92.8113 108.405 91.6093 105.449 90.6699C104.433 90.3472 103.295 90.0629 102.336 90.5265C99.9881 91.6619 95.5684 91.9644 95.1331 91.6593C94.6979 91.3542 94.1025 91.5013 93.6011 91.6776C92.7936 91.9614 91.2549 92.5612 89.4166 93.2779L89.4159 93.2782L89.4155 93.2783L89.4153 93.2784C84.9034 95.0374 78.5878 97.4996 76.8489 97.7198C76.3911 97.7778 75.9307 97.8208 75.4704 97.8637C74.4752 97.9565 73.4804 98.0493 72.5131 98.294C71.0984 98.6519 69.7039 99.3936 68.9551 100.646C68.3957 100.338 68.0465 99.7943 67.6954 99.2473L67.6954 99.2472C67.5259 98.9832 67.356 98.7185 67.1619 98.4793C66.5652 97.7445 65.3127 97.2909 64.7407 98.0451C64.2389 96.3288 61.6983 95.6663 60.4223 96.9189C60.2251 97.1125 60.0606 97.3356 59.8961 97.5586C59.7251 97.7905 59.5541 98.0223 59.3465 98.2209C58.9391 98.6106 58.2871 98.8506 57.8144 98.5434C59.7462 96.0568 62.9979 95.2312 66.1033 94.4428ZM59.8068 125.61C58.3493 126.134 56.7412 125.623 55.2953 125.068C53.9286 124.543 52.5018 123.916 51.6716 122.71C50.6723 121.259 50.78 119.344 50.9273 117.588L51.5441 110.233C50.6294 111.002 49.9576 112.056 49.6464 113.21C48.9072 111.579 50.0067 109.401 51.7575 109.027C51.0178 108.415 49.8002 108.817 49.2782 109.623C48.7561 110.429 48.7679 111.467 48.9206 112.415C48.9617 112.671 49.0119 112.927 49.062 113.182C49.1978 113.873 49.3335 114.565 49.2917 115.265C48.1927 113.548 47.9832 111.293 48.7471 109.403C49.093 108.546 49.7061 107.709 50.6027 107.488C51.4994 107.268 52.609 108 52.4605 108.912C52.1201 111 53.094 113.144 54.5875 114.643C56.081 116.142 58.038 117.087 60.0135 117.845C60.7405 118.125 61.6445 118.764 61.29 119.458C60.9197 120.182 60.6644 121.001 60.7916 121.805C60.9187 122.608 61.5072 123.376 62.3087 123.514C63.2966 123.685 64.1758 122.92 64.886 122.212L69.082 118.032C68.5228 119.585 67.8669 121.104 67.1192 122.576C66.6071 123.585 66.0214 124.606 65.0956 125.255C64.1697 125.905 62.8143 126.074 61.9386 125.358C61.4507 124.96 60.7849 125.225 60.1652 125.472L60.1647 125.472C60.043 125.52 59.9232 125.568 59.8068 125.61ZM59.3914 110.981L59.391 110.981C58.9998 110.722 58.6081 110.462 58.2023 110.233C56.9449 109.524 55.2749 109.142 54.1205 110.009C53.7505 108.818 54.482 107.539 55.4362 106.736C57.1241 105.315 59.5986 104.898 61.6589 105.688C63.6122 106.436 65.5949 107.252 67.1465 108.655C68.698 110.058 69.7587 112.18 69.3601 114.233C68.9238 114.339 68.5597 113.989 68.2193 113.662L68.2193 113.662C68.1544 113.599 68.0903 113.538 68.0268 113.48C67.0618 112.607 65.7383 112.583 64.3894 112.559C63.5693 112.545 62.7397 112.53 61.9758 112.324C61.0318 112.069 60.2125 111.526 59.3914 110.981ZM133.845 63.985C134.062 63.5935 134.383 63.1438 134.828 63.1945C135.403 63.26 135.519 64.0456 135.44 64.6194C134.88 68.6909 132.359 72.3108 129.153 74.882C125.947 77.4532 122.089 79.0809 118.187 80.3713C117.919 80.46 117.656 80.6272 117.398 80.7915C116.904 81.1054 116.428 81.4084 115.965 81.1307C115.432 80.8108 115.568 79.9331 116.053 79.5441C116.494 79.1912 117.08 79.1154 117.646 79.0424C117.704 79.035 117.761 79.0275 117.818 79.0198C121.591 78.5119 124.961 76.2735 127.538 73.4719C130.116 70.6703 132.001 67.3156 133.845 63.985ZM63.8885 98.28C64.2284 98.685 64.6029 99.1311 65.1187 99.12C65.5526 99.1106 65.8229 99.4629 66.103 99.828C66.3015 100.087 66.505 100.352 66.7752 100.499C67.4213 100.852 67.4769 101.832 67.0528 102.434C66.6287 103.035 65.8927 103.328 65.1807 103.514C63.7289 103.893 62.1959 103.959 60.7169 103.705C59.7524 103.539 58.7526 103.2 58.1447 102.433C57.5368 101.666 57.5195 100.378 58.3245 99.8217C58.5937 99.6355 58.9179 99.5488 59.2401 99.4625C59.6245 99.3596 60.0061 99.2575 60.2889 98.9883C60.4987 98.7885 60.6244 98.5222 60.75 98.2562C60.8815 97.9777 61.0128 97.6995 61.2404 97.4987C61.6089 97.1736 62.1672 97.1291 62.6309 97.2916C63.0947 97.454 63.4759 97.7941 63.7943 98.1684L63.8425 98.2253L63.8885 98.28ZM110.841 125.166C110.693 125.344 110.33 125.326 110.292 125.097C110.133 124.157 110.058 123 110.836 122.448L110.968 124.5C110.983 124.732 110.99 124.988 110.841 125.166ZM62.4471 121.426C62.7963 120.5 62.9963 119.493 62.7962 118.527C62.584 117.503 61.8445 116.543 60.8269 116.302C58.4725 115.745 56.3324 114.325 54.9049 112.372C54.6173 111.978 54.3833 111.364 54.7663 111.063C54.9233 110.939 55.1374 110.921 55.3373 110.924C56.6265 110.943 57.7545 111.614 58.8844 112.286C59.3414 112.558 59.7988 112.83 60.2672 113.06C61.3876 113.608 62.6221 113.922 63.8683 113.974C64.1179 113.985 64.3702 113.986 64.6228 113.986H64.6233C65.4187 113.989 66.2167 113.991 66.9395 114.301C67.892 114.71 68.5946 115.95 67.9999 116.799C66.6312 118.753 64.7361 120.262 62.8525 121.73C62.7503 121.81 62.6052 121.803 62.5113 121.713C62.4338 121.639 62.4094 121.526 62.4471 121.426ZM103.041 42.0463C103.885 42.6052 104.551 43.4291 104.92 44.3718C104.996 44.5639 105.162 44.6909 105.329 44.8189C105.417 44.8863 105.506 44.9539 105.582 45.0315C105.802 45.2566 105.838 45.7377 105.53 45.8006C105.395 45.8281 105.262 45.7538 105.144 45.6832C103.251 44.5529 100.949 43.6403 98.8842 44.4123C99.2238 44.5857 99.3952 45.0307 99.2598 45.3871C99.6813 45.4024 100.074 45.5919 100.453 45.7777L101.453 46.2687L101.348 46.564C99.8408 45.7963 97.9992 45.7165 96.4307 46.3509C96.952 46.4301 97.4831 46.4446 98.0079 46.3939L100.304 47.551C100.474 47.6368 100.654 47.7311 100.749 47.8959C100.845 48.0608 100.809 48.3164 100.631 48.3843C99.2478 47.1648 97.2918 46.6256 95.4795 46.9642C95.268 47.0038 95.1233 46.7088 95.2131 46.5132C95.3028 46.3177 95.518 46.2173 95.7182 46.1385C96.7229 45.743 97.7824 45.4871 98.8568 45.3806C98.3193 44.8824 97.6968 44.4762 97.0243 44.1849C96.9136 43.8061 97.46 43.4431 97.7663 43.6919C100.093 43.2358 102.586 43.6884 104.604 44.9334C104.621 44.5376 104.327 44.2047 104.053 43.9191L101.477 41.2411C102.98 41.4316 104.454 41.8549 105.83 42.4914C106.141 42.6354 106.448 42.7908 106.73 42.9859C107.791 43.7206 108.423 45.0348 108.333 46.3224C107.69 44.9637 106.673 43.7846 105.423 42.9499C104.708 42.4728 103.898 42.1013 103.041 42.0463ZM108.338 54.5506C108.192 53.4143 108.186 52.2023 108.726 51.1922C108.888 50.8901 109.112 50.5998 109.43 50.4732C109.917 50.2795 110.478 50.5268 110.862 50.8835C111.815 51.7684 112.018 53.2018 111.936 54.4997C111.901 55.0637 111.818 55.6406 111.542 56.1334C111.265 56.6263 110.759 57.0228 110.194 57.0311C109.627 57.0394 109.109 56.6559 108.814 56.1713C108.519 55.6867 108.41 55.1133 108.338 54.5506ZM94.7713 58.7775C93.6995 57.1372 93.7718 54.8299 94.9441 53.2599C95.0842 53.0723 95.2434 52.8905 95.4516 52.7832C95.857 52.5743 96.375 52.7003 96.7263 52.9912C97.0775 53.2822 97.2886 53.7084 97.4414 54.1381C97.8943 55.411 97.9131 56.834 97.4939 58.1184C97.2397 58.8974 96.6094 59.7402 95.8022 59.5994C95.3566 59.5216 95.0187 59.1562 94.7713 58.7775ZM108.924 67.1967C109.302 66.948 109.645 66.7218 109.557 67.0263C109.531 67.1193 109.439 67.269 109.283 67.4551C108.982 67.8128 108.577 68.066 108.136 68.22C107.082 68.588 105.687 68.8606 104.834 69.0105C104.563 69.0581 104.288 69.0785 104.013 69.0865C103.647 69.0972 103.285 69.1195 102.956 69.1398L102.956 69.1398C102.087 69.1934 101.442 69.2331 101.534 69.0092C101.616 68.8102 102.506 68.7373 103.493 68.6562C104.196 68.5986 104.948 68.5368 105.494 68.4226C106.382 68.2368 107.451 67.8989 108.333 67.5441C108.496 67.4787 108.715 67.3342 108.924 67.1967ZM107.96 62.68C109.74 62.2857 110.734 62.3356 112.261 62.7246L112.583 62.8086C114.106 63.2064 115.058 63.2081 116.991 62.5814C117.222 62.5064 117.47 62.6331 117.545 62.8642C117.62 63.0954 114.092 64.0979 112.479 63.6906L112.182 63.6132C110.697 63.2232 109.833 63.1663 108.151 63.5391C107.913 63.5917 107.679 63.442 107.626 63.2048C107.573 62.9675 107.723 62.7326 107.96 62.68ZM121.937 58.4304C121.829 58.2124 121.566 58.1226 121.348 58.23C118.216 59.7713 116.481 59.9721 113.626 59.6075L112.905 59.5183C112.823 59.509 112.751 59.5014 112.675 59.494L112.418 59.4712C110.718 59.3375 109.37 59.626 107.64 60.6589C107.432 60.7835 107.364 61.0536 107.488 61.2623C107.613 61.4709 107.883 61.539 108.092 61.4144C109.701 60.4534 110.889 60.215 112.477 60.3593C112.582 60.3689 112.67 60.3775 112.772 60.3888L113.828 60.5187C116.664 60.8481 122.044 58.6484 121.937 58.4304ZM100.213 62.5611C100.455 62.5438 100.666 62.7263 100.683 62.9687C100.7 63.2111 100.518 63.4216 100.276 63.4389C99.2726 63.5103 98.5816 63.8514 97.5445 64.6871L97.1694 64.997L96.903 65.22C95.9888 65.9821 95.3799 66.3975 94.5722 66.7287C94.3474 66.8209 92.7947 67.1368 93.9982 66.4886C95.2017 65.8403 96.7698 64.1842 96.7698 64.1842L96.9994 63.9963C98.1632 63.0596 98.9958 62.6477 100.213 62.5611ZM100.873 64.6661C100.778 64.4426 100.519 64.3387 100.296 64.4341C99.1914 64.9056 98.5697 65.5081 97.5246 66.8759L97.202 67.2956C96.9905 67.5661 96.8133 67.8391 96.6413 68.1039C96.262 68.688 95.9082 69.2329 95.2696 69.6257C94.3413 70.1967 95.6678 69.8973 95.8748 69.77C96.699 69.2632 97.2336 68.7039 98.0678 67.6145L98.3099 67.2981C99.2153 66.1241 99.744 65.6266 100.641 65.2435C100.865 65.1481 100.969 64.8896 100.873 64.6661Z" fill="#00160A"/>
<path fill-rule="evenodd" clip-rule="evenodd" d="M102.415 63.2684C102.055 62.944 101.532 62.8446 101.18 62.5111C100.847 62.1949 100.72 61.6794 100.867 61.2443C101.014 60.8092 101.429 60.4774 101.886 60.429C103.196 60.2901 104.507 60.1512 105.817 60.0123C106.128 59.9793 106.472 59.9546 106.724 60.1399C107.108 60.4229 107.048 61.0413 106.77 61.4295C106.492 61.8177 106.063 62.0679 105.728 62.4082C105.296 62.8468 105.026 63.4413 104.98 64.055C104.946 64.5108 104.996 65.054 104.634 65.334C104.181 65.6855 103.51 65.2701 103.233 64.768C102.955 64.2659 102.841 63.6524 102.415 63.2684H102.415Z" fill="#00CCCC"/>
<path fill-rule="evenodd" clip-rule="evenodd" d="M155.551 125.375C158.334 125.386 162.295 125.286 164.318 123.374C166.215 121.582 166.876 119.356 166.588 116.762C166.3 114.169 164.305 110.973 164.229 108.365C164.824 113.933 172.734 115.49 175.213 120.511C176.552 123.225 176.016 126.574 174.525 129.208C173.034 131.841 170.707 133.889 168.35 135.788C161.711 141.139 153.532 144.638 147.98 151.109C142.427 157.581 138.202 167.673 140.609 175.853C143.062 184.189 153.598 190.009 162.198 188.767C163.028 188.647 163.869 188.462 164.577 188.013C166.255 186.948 166.744 184.693 166.589 182.712C166.433 180.73 165.794 178.792 165.842 176.805C165.947 172.46 169.237 168.912 172.507 166.049C180.57 158.988 190.247 152.68 193.955 142.624C196.485 135.76 195.68 127.752 191.834 121.529C186.612 113.079 176.568 108.354 171.86 99.6073C171.72 101.381 171.407 103.141 170.926 104.854C170.721 105.587 170.368 106.424 169.625 106.59C168.844 106.764 177.56 94.3805 160.043 78.9393C153.53 73.1978 145.457 69.0287 137.386 65.4131C134.62 74.1823 126.522 81.0256 117.414 82.291C116.792 82.3774 116.65 83.2031 116.664 83.8312C116.862 92.5037 117.059 101.176 117.256 109.849C117.342 113.617 117.093 118.062 113.938 120.126C112.638 120.976 112.235 122.939 113.095 124.233C113.955 125.527 115.92 125.916 117.208 125.047C115.714 122.523 117.423 118.748 120.305 118.205C121.367 118.005 121.706 116.676 121.822 115.602C122.344 110.785 122.867 105.968 123.389 101.15C123.59 106.646 123.792 112.142 123.993 117.637C129.343 115.227 135.577 119.559 141.325 118.38C136.566 115.083 132.174 110.857 130.174 105.424C128.174 99.9904 129.11 93.19 133.563 89.4904C130.911 93.7285 130.387 99.2289 132.192 103.891C133.933 108.387 137.569 111.857 141.277 114.937C142.427 115.892 143.663 116.93 144.018 118.381C144.374 119.833 143.257 121.688 141.785 121.427C136.547 119.457 130.872 118.655 125.292 119.097C123.564 119.234 121.75 119.528 120.403 120.62C119.056 121.712 118.411 123.841 119.453 125.227C131.486 125.276 143.518 125.326 155.551 125.375Z" fill="white"/>
<path fill-rule="evenodd" clip-rule="evenodd" d="M162.071 188.644C162.9 188.524 163.742 188.339 164.449 187.89C166.127 186.824 166.616 184.57 166.461 182.588C166.306 180.607 165.666 178.668 165.715 176.681C165.82 172.336 169.11 168.789 172.38 165.925C180.443 158.865 190.12 152.556 193.828 142.5C195.312 138.474 176.673 150.786 166.461 165.282C159.266 175.496 158.516 189.157 162.071 188.644Z" fill="#E7EAEE"/>
<path fill-rule="evenodd" clip-rule="evenodd" d="M168.927 88.5128C167.664 85.4703 164.142 82.541 159.916 78.8158C153.403 73.0743 145.33 68.9052 137.259 65.2896C145.173 71.0552 154.822 75.868 161.688 83.1044C165.035 86.6314 167.299 93.7393 169.19 96.0234C170.639 97.772 172.531 97.1898 168.927 88.5128Z" fill="#E7EAEE"/>
<path fill-rule="evenodd" clip-rule="evenodd" d="M113.155 87.3194C113.442 86.6927 113.644 83.8003 112.132 83.8003C111.189 84.8711 111.285 86.9259 113.155 87.3194Z" fill="#00CCCC"/>
<path fill-rule="evenodd" clip-rule="evenodd" d="M67.283 94.1392C63.8501 95.0475 59.9929 95.7393 57.8145 98.5435C58.2871 98.8506 58.9392 98.6106 59.3465 98.221C59.7539 97.8314 60.0201 97.3139 60.4224 96.919C61.6983 95.6664 64.2389 96.3289 64.7407 98.0451C65.3127 97.291 66.5653 97.7446 67.1619 98.4794C67.7585 99.2142 68.1258 100.19 68.9551 100.646C69.7039 99.3936 71.0984 98.652 72.5131 98.2941C73.9278 97.9362 75.4013 97.9033 76.849 97.7199C79.2965 97.4099 81.688 96.6622 83.8762 95.5228C83.7432 95.7958 92.8098 91.8642 101.106 91.2943C107.165 90.8781 112.863 93.647 114.021 94.2572C114.785 89.7215 115.5 84.8226 113.427 80.7167C113.597 82.6041 113.919 84.4777 114.39 86.3132C114.665 87.3852 113.35 88.375 112.286 88.0712C111.222 87.7673 110.594 86.5999 110.558 85.4939C110.522 84.3879 110.947 83.3251 111.365 82.3004C111.692 81.4999 112.018 80.6993 112.345 79.8988C112.491 79.5408 112.639 79.1712 112.637 78.7846C112.63 77.6866 111.483 76.9877 110.463 76.5808C108.516 75.8043 106.472 75.2738 104.394 75.0059C103.832 74.9334 103.187 74.9061 102.78 75.3008C97.519 80.4073 90.8478 83.7647 84.2896 87.0432C78.785 89.7949 73.2323 92.5651 67.283 94.1392Z" fill="white"/>
<path fill-rule="evenodd" clip-rule="evenodd" d="M68.9552 100.646C69.7039 99.3933 71.0985 98.6517 72.5132 98.2938C73.9278 97.9359 75.4013 97.9029 76.849 97.7196C77.4138 97.648 79.7333 97.2819 82.7441 96.2255C87.0974 94.698 93.0733 92.2595 98.7668 91.6391C106.199 90.8293 112.826 93.6271 114.021 94.2568C114.786 89.7211 112.2 90.2658 110.812 90.1225C80.1276 86.953 68.1258 100.19 68.9552 100.646Z" fill="#E7EAEE"/>
<path fill-rule="evenodd" clip-rule="evenodd" d="M62.7902 118.777C62.9904 119.743 62.7904 120.75 62.4411 121.676C62.4034 121.776 62.4278 121.889 62.5053 121.963C62.5992 122.053 62.7443 122.06 62.8465 121.98C64.7301 120.513 66.6253 119.003 67.9939 117.049C68.5886 116.2 67.886 114.96 66.9335 114.551C65.981 114.142 64.898 114.268 63.8624 114.224C62.6162 114.172 61.3816 113.858 60.2612 113.31C58.6347 112.514 57.142 111.201 55.3313 111.174C55.1314 111.171 54.9174 111.189 54.7603 111.313C54.3773 111.614 54.6113 112.228 54.8989 112.622C56.3265 114.575 58.4665 115.995 60.8209 116.552C61.8385 116.793 62.578 117.753 62.7902 118.777Z" fill="#B8F1F1" stroke="#B8F1F1" stroke-width="2"/>
<path fill-rule="evenodd" clip-rule="evenodd" d="M60.5207 128.475C60.6755 128.517 60.8437 128.507 60.9928 128.449C61.5798 128.217 61.5157 127.176 60.9048 127.019C60.2939 126.861 59.7341 127.741 60.1357 128.227C60.2344 128.347 60.371 128.435 60.5207 128.475Z" fill="#B8F1F1"/>
</svg>
