<svg width="49" height="22" viewBox="0 0 49 22" fill="none" xmlns="http://www.w3.org/2000/svg">
<g clip-path="url(#clip0_3702_3803)">
<path d="M27.7424 5.06672L29.9889 4.16038C30.126 3.4352 30.6771 2.85459 31.3863 2.67439L31.5078 1.27444C31.5251 1.07474 31.6591 0.904288 31.8491 0.840317C32.0391 0.776347 32.2489 0.830907 32.3835 0.979461L32.9712 1.62768L33.3318 0.365583C33.3919 0.155411 33.5806 0.00786517 33.799 0.000247007C34.0174 -0.00653092 34.216 0.126731 34.2905 0.332309L37.4014 8.9145C39.6392 9.49561 41.5934 10.9276 42.7936 12.8762C43.893 14.661 44.2344 16.7058 43.7551 18.6338C43.475 19.7607 42.9431 20.5032 42.399 20.9901H42.8269C42.831 20.9901 42.835 20.9902 42.839 20.9903C44.8632 21.0396 46.739 19.8889 47.6149 18.0603C47.7351 17.8092 48.0362 17.7032 48.2873 17.8234C48.5385 17.9437 48.6445 18.2447 48.5242 18.4959C47.4985 20.6371 45.3269 22 42.9626 22C42.9154 22 33.3375 22 33.3375 22C33.059 22 32.8333 21.7744 32.8333 21.4959C32.8333 20.1389 33.9157 19.5203 34.871 19.2933C34.4243 18.4225 34.3858 17.6566 34.4364 17.1556L34.3046 17.138L31.283 21.7713C31.1899 21.9139 31.0311 22 30.8607 22H29.0259C28.8423 22 28.6732 21.9002 28.5845 21.7395C28.4958 21.5787 28.5015 21.3825 28.5994 21.2271C28.6189 21.1962 30.5132 18.1884 31.5316 16.5045V8.03349C31.3817 8.05074 31.2134 8.05942 31.0647 8.05942C29.6022 8.05942 28.2267 7.23431 27.4861 5.77128C27.4855 5.77011 27.4665 5.73045 27.4635 5.72283C27.3593 5.46465 27.4842 5.17085 27.7424 5.06672Z" fill="#58F2F2"/>
</g>
<g clip-path="url(#clip1_3702_3803)">
<path d="M12.5404 9.68489L14.1742 9.02573C14.2739 8.49833 14.6747 8.07607 15.1905 7.94501L15.2788 6.92687C15.2915 6.78163 15.3889 6.65766 15.5271 6.61114C15.6652 6.56462 15.8178 6.6043 15.9157 6.71234L16.3432 7.18377L16.6054 6.26588C16.6491 6.11303 16.7863 6.00572 16.9452 6.00018C17.104 5.99525 17.2484 6.09217 17.3026 6.24168L19.5651 12.4833C21.1926 12.9059 22.6138 13.9473 23.4867 15.3645C24.2862 16.6625 24.5346 18.1496 24.186 19.5519C23.9822 20.3714 23.5954 20.9114 23.1997 21.2656H23.5109C23.5139 21.2656 23.5168 21.2656 23.5197 21.2657C24.9918 21.3016 26.356 20.4646 26.9931 19.1347C27.0805 18.9521 27.2995 18.875 27.4821 18.9625C27.6648 19.05 27.7419 19.2689 27.6544 19.4515C26.9085 21.0088 25.3291 22 23.6096 22C23.5753 22 16.6095 22 16.6095 22C16.407 22 16.2429 21.8359 16.2429 21.6334C16.2429 20.6464 17.0301 20.1966 17.7248 20.0315C17.4 19.3982 17.3719 18.8412 17.4087 18.4768L17.3129 18.464L15.1153 21.8337C15.0476 21.9374 14.9321 22 14.8082 22H13.4738C13.3403 22 13.2173 21.9274 13.1528 21.8105C13.0883 21.6936 13.0925 21.5509 13.1636 21.4379C13.1778 21.4154 14.5555 19.228 15.2961 18.0033V11.8425C15.1871 11.8551 15.0647 11.8614 14.9566 11.8614C13.8929 11.8614 12.8926 11.2613 12.354 10.1973C12.3535 10.1964 12.3397 10.1676 12.3375 10.1621C12.2618 9.97429 12.3526 9.76062 12.5404 9.68489Z" fill="#008080"/>
</g>
<g clip-path="url(#clip2_3702_3803)">
<path d="M0.40505 12.7627L1.63039 12.2683C1.70521 11.8728 2.00581 11.5561 2.39262 11.4578L2.45889 10.6942C2.46836 10.5852 2.54145 10.4923 2.64506 10.4574C2.7487 10.4225 2.86315 10.4522 2.93657 10.5333L3.25714 10.8868L3.45382 10.1984C3.48658 10.0838 3.58951 10.0033 3.70867 9.99916C3.82777 9.99546 3.93609 10.0681 3.97675 10.1803L5.6736 14.8615C6.89423 15.1784 7.96011 15.9595 8.61479 17.0224C9.21445 17.9959 9.4007 19.1113 9.13925 20.1629C8.98645 20.7776 8.69634 21.1826 8.39957 21.4482H8.63297C8.63517 21.4482 8.63737 21.4482 8.63957 21.4483C9.74364 21.4752 10.7668 20.8475 11.2446 19.8501C11.3102 19.7131 11.4744 19.6553 11.6114 19.7209C11.7484 19.7865 11.8062 19.9507 11.7406 20.0877C11.1811 21.2556 9.9966 21.999 8.70697 21.999C8.68125 21.999 3.45691 21.999 3.45691 21.999C3.30502 21.999 3.18192 21.8759 3.18192 21.7241C3.18192 20.9839 3.77232 20.6465 4.29338 20.5226C4.04975 20.0476 4.02869 19.6299 4.05632 19.3566L3.98445 19.347L2.33628 21.8743C2.2855 21.9521 2.19888 21.999 2.10593 21.999H1.10513C1.00501 21.999 0.912766 21.9446 0.864399 21.8569C0.816001 21.7692 0.819117 21.6622 0.872495 21.5775C0.883128 21.5606 1.9164 19.92 2.47188 19.0015V14.3809C2.39011 14.3903 2.2983 14.3951 2.21721 14.3951C1.41947 14.3951 0.669219 13.945 0.265264 13.147C0.264928 13.1464 0.254571 13.1247 0.252921 13.1206C0.19609 12.9797 0.264195 12.8195 0.40505 12.7627Z" fill="#008080"/>
</g>
<defs>
<clipPath id="clip0_3702_3803">
<rect width="22" height="22" fill="white" transform="matrix(-1 0 0 1 49 0)"/>
</clipPath>
<clipPath id="clip1_3702_3803">
<rect width="16" height="16" fill="white" transform="matrix(-1 0 0 1 28 6)"/>
</clipPath>
<clipPath id="clip2_3702_3803">
<rect width="12" height="12" fill="white" transform="matrix(-1 0 0 1 12 10)"/>
</clipPath>
</defs>
</svg>
