<svg width="30" height="31" viewBox="0 0 30 31" fill="none" xmlns="http://www.w3.org/2000/svg">
<path d="M4.68872 22.4254V23.1694H2.32872V24.8094H4.16872V25.5534H2.32872V27.9854H1.41672V22.4254H4.68872ZM9.73391 25.6734C9.73391 25.8387 9.72324 25.988 9.70191 26.1214H6.33391C6.36057 26.4734 6.49124 26.756 6.72591 26.9694C6.96057 27.1827 7.24857 27.2894 7.58991 27.2894C8.08057 27.2894 8.42724 27.084 8.62991 26.6734H9.61391C9.48057 27.0787 9.23791 27.412 8.88591 27.6734C8.53924 27.9294 8.10724 28.0574 7.58991 28.0574C7.16857 28.0574 6.78991 27.964 6.45391 27.7774C6.12324 27.5854 5.86191 27.3187 5.66991 26.9774C5.48324 26.6307 5.38991 26.2307 5.38991 25.7774C5.38991 25.324 5.48057 24.9267 5.66191 24.5854C5.84857 24.2387 6.10724 23.972 6.43791 23.7854C6.77391 23.5987 7.15791 23.5054 7.58991 23.5054C8.00591 23.5054 8.37657 23.596 8.70191 23.7774C9.02724 23.9587 9.28057 24.2147 9.46191 24.5454C9.64324 24.8707 9.73391 25.2467 9.73391 25.6734ZM8.78191 25.3854C8.77657 25.0494 8.65657 24.78 8.42191 24.5774C8.18724 24.3747 7.89657 24.2734 7.54991 24.2734C7.23524 24.2734 6.96591 24.3747 6.74191 24.5774C6.51791 24.7747 6.38457 25.044 6.34191 25.3854H8.78191ZM7.56591 22.5774L6.42191 23.2654V22.5534L7.56591 21.8894L8.70991 22.5534V23.2654L7.56591 22.5774ZM16.1274 23.5054C16.4741 23.5054 16.7834 23.5774 17.0554 23.7214C17.3327 23.8654 17.5487 24.0787 17.7034 24.3614C17.8634 24.644 17.9434 24.9854 17.9434 25.3854V27.9854H17.0394V25.5214C17.0394 25.1267 16.9407 24.8254 16.7434 24.6174C16.5461 24.404 16.2767 24.2974 15.9354 24.2974C15.5941 24.2974 15.3221 24.404 15.1194 24.6174C14.9221 24.8254 14.8234 25.1267 14.8234 25.5214V27.9854H13.9194V25.5214C13.9194 25.1267 13.8207 24.8254 13.6234 24.6174C13.4261 24.404 13.1567 24.2974 12.8154 24.2974C12.4741 24.2974 12.2021 24.404 11.9994 24.6174C11.8021 24.8254 11.7034 25.1267 11.7034 25.5214V27.9854H10.7914V23.5774H11.7034V24.0814C11.8527 23.9 12.0421 23.7587 12.2714 23.6574C12.5007 23.556 12.7461 23.5054 13.0074 23.5054C13.3594 23.5054 13.6741 23.58 13.9514 23.7294C14.2287 23.8787 14.4421 24.0947 14.5914 24.3774C14.7247 24.1107 14.9327 23.9 15.2154 23.7454C15.4981 23.5854 15.8021 23.5054 16.1274 23.5054ZM23.3039 25.6734C23.3039 25.8387 23.2932 25.988 23.2719 26.1214H19.9039C19.9306 26.4734 20.0612 26.756 20.2959 26.9694C20.5306 27.1827 20.8186 27.2894 21.1599 27.2894C21.6506 27.2894 21.9972 27.084 22.1999 26.6734H23.1839C23.0506 27.0787 22.8079 27.412 22.4559 27.6734C22.1092 27.9294 21.6772 28.0574 21.1599 28.0574C20.7386 28.0574 20.3599 27.964 20.0239 27.7774C19.6932 27.5854 19.4319 27.3187 19.2399 26.9774C19.0532 26.6307 18.9599 26.2307 18.9599 25.7774C18.9599 25.324 19.0506 24.9267 19.2319 24.5854C19.4186 24.2387 19.6772 23.972 20.0079 23.7854C20.3439 23.5987 20.7279 23.5054 21.1599 23.5054C21.5759 23.5054 21.9466 23.596 22.2719 23.7774C22.5972 23.9587 22.8506 24.2147 23.0319 24.5454C23.2132 24.8707 23.3039 25.2467 23.3039 25.6734ZM22.3519 25.3854C22.3466 25.0494 22.2266 24.78 21.9919 24.5774C21.7572 24.3747 21.4666 24.2734 21.1199 24.2734C20.8052 24.2734 20.5359 24.3747 20.3119 24.5774C20.0879 24.7747 19.9546 25.044 19.9119 25.3854H22.3519ZM24.0574 25.7614C24.0574 25.3187 24.1481 24.9267 24.3294 24.5854C24.5161 24.244 24.7667 23.98 25.0814 23.7934C25.4014 23.6014 25.7534 23.5054 26.1374 23.5054C26.4841 23.5054 26.7854 23.5747 27.0414 23.7134C27.3027 23.8467 27.5107 24.0147 27.6654 24.2174V23.5774H28.5854V27.9854H27.6654V27.3294C27.5107 27.5374 27.3001 27.7107 27.0334 27.8494C26.7667 27.988 26.4627 28.0574 26.1214 28.0574C25.7427 28.0574 25.3961 27.9614 25.0814 27.7694C24.7667 27.572 24.5161 27.3 24.3294 26.9534C24.1481 26.6014 24.0574 26.204 24.0574 25.7614ZM27.6654 25.7774C27.6654 25.4734 27.6014 25.2094 27.4734 24.9854C27.3507 24.7614 27.1881 24.5907 26.9854 24.4734C26.7827 24.356 26.5641 24.2974 26.3294 24.2974C26.0947 24.2974 25.8761 24.356 25.6734 24.4734C25.4707 24.5854 25.3054 24.7534 25.1774 24.9774C25.0547 25.196 24.9934 25.4574 24.9934 25.7614C24.9934 26.0654 25.0547 26.332 25.1774 26.5614C25.3054 26.7907 25.4707 26.9667 25.6734 27.0894C25.8814 27.2067 26.1001 27.2654 26.3294 27.2654C26.5641 27.2654 26.7827 27.2067 26.9854 27.0894C27.1881 26.972 27.3507 26.8014 27.4734 26.5774C27.6014 26.348 27.6654 26.0814 27.6654 25.7774Z" fill="#9B3A9B"/>
<g clip-path="url(#clip0_3469_3894)">
<path d="M20.4826 7.11174C20.4826 4.30727 18.1693 1.98535 15.3293 1.98535C12.4893 1.98535 10.1378 4.30727 10.1378 7.11174C10.1378 9.72393 12.1915 11.8612 14.7567 12.1439V15.5929H13.0389C12.7182 15.5929 12.4663 15.8416 12.4663 16.1583C12.4663 16.4749 12.7182 16.7237 13.0389 16.7237H14.7567V18.4199C14.7567 18.7365 15.0086 18.9854 15.3293 18.9854C15.65 18.9854 15.9019 18.7365 15.9019 18.4199V16.7237H17.6197C17.9403 16.7237 18.1922 16.4749 18.1922 16.1583C18.1922 15.8416 17.9403 15.5929 17.6197 15.5929H15.9019V12.1439C18.4671 11.8612 20.4826 9.72393 20.4826 7.11174ZM15.3293 11.0696C13.1191 11.0696 11.283 9.29422 11.283 7.11174C11.283 4.92925 13.1191 3.11617 15.3293 3.11617C17.5395 3.11617 19.3374 4.92925 19.3374 7.11174C19.3374 9.29422 17.5395 11.0696 15.3293 11.0696Z" fill="#008080"/>
</g>
<defs>
<clipPath id="clip0_3469_3894">
<rect width="18.6207" height="18" fill="white" transform="translate(5.99986 0.985352)"/>
</clipPath>
</defs>
</svg>
