<svg width="30" height="30" viewBox="0 0 30 30" fill="none" xmlns="http://www.w3.org/2000/svg">
<path d="M7.35084 21.44V27H6.43884V23.192L4.74284 27H4.11084L2.40684 23.192V27H1.49484V21.44H2.47884L4.43084 25.8L6.37484 21.44H7.35084ZM8.40553 24.776C8.40553 24.3333 8.4962 23.9413 8.67753 23.6C8.8642 23.2587 9.11486 22.9947 9.42953 22.808C9.74953 22.616 10.1015 22.52 10.4855 22.52C10.8322 22.52 11.1335 22.5893 11.3895 22.728C11.6509 22.8613 11.8589 23.0293 12.0135 23.232V22.592H12.9335V27H12.0135V26.344C11.8589 26.552 11.6482 26.7253 11.3815 26.864C11.1149 27.0027 10.8109 27.072 10.4695 27.072C10.0909 27.072 9.7442 26.976 9.42953 26.784C9.11486 26.5867 8.8642 26.3147 8.67753 25.968C8.4962 25.616 8.40553 25.2187 8.40553 24.776ZM12.0135 24.792C12.0135 24.488 11.9495 24.224 11.8215 24C11.6989 23.776 11.5362 23.6053 11.3335 23.488C11.1309 23.3707 10.9122 23.312 10.6775 23.312C10.4429 23.312 10.2242 23.3707 10.0215 23.488C9.81886 23.6 9.65353 23.768 9.52553 23.992C9.40286 24.2107 9.34153 24.472 9.34153 24.776C9.34153 25.08 9.40286 25.3467 9.52553 25.576C9.65353 25.8053 9.81886 25.9813 10.0215 26.104C10.2295 26.2213 10.4482 26.28 10.6775 26.28C10.9122 26.28 11.1309 26.2213 11.3335 26.104C11.5362 25.9867 11.6989 25.816 11.8215 25.592C11.9495 25.3627 12.0135 25.096 12.0135 24.792ZM13.9874 24.792C13.9874 24.3387 14.0781 23.9413 14.2594 23.6C14.4461 23.2533 14.7021 22.9867 15.0274 22.8C15.3527 22.6133 15.7261 22.52 16.1474 22.52C16.6807 22.52 17.1207 22.648 17.4674 22.904C17.8194 23.1547 18.0567 23.5147 18.1794 23.984H17.1954C17.1154 23.7653 16.9874 23.5947 16.8114 23.472C16.6354 23.3493 16.4141 23.288 16.1474 23.288C15.7741 23.288 15.4754 23.4213 15.2514 23.688C15.0327 23.9493 14.9234 24.3173 14.9234 24.792C14.9234 25.2667 15.0327 25.6373 15.2514 25.904C15.4754 26.1707 15.7741 26.304 16.1474 26.304C16.6754 26.304 17.0247 26.072 17.1954 25.608H18.1794C18.0514 26.056 17.8114 26.4133 17.4594 26.68C17.1074 26.9413 16.6701 27.072 16.1474 27.072C15.7261 27.072 15.3527 26.9787 15.0274 26.792C14.7021 26.6 14.4461 26.3333 14.2594 25.992C14.0781 25.6453 13.9874 25.2453 13.9874 24.792ZM21.5283 22.52C21.8643 22.52 22.1629 22.592 22.4243 22.736C22.6909 22.88 22.8989 23.0933 23.0483 23.376C23.2029 23.6587 23.2803 24 23.2803 24.4V27H22.3763V24.536C22.3763 24.1413 22.2776 23.84 22.0803 23.632C21.8829 23.4187 21.6136 23.312 21.2723 23.312C20.9309 23.312 20.6589 23.4187 20.4563 23.632C20.2589 23.84 20.1603 24.1413 20.1603 24.536V27H19.2483V21.08H20.1603V23.104C20.3149 22.9173 20.5096 22.7733 20.7443 22.672C20.9843 22.5707 21.2456 22.52 21.5283 22.52ZM26.5156 27.072C26.0996 27.072 25.7236 26.9787 25.3876 26.792C25.0516 26.6 24.7876 26.3333 24.5956 25.992C24.4036 25.6453 24.3076 25.2453 24.3076 24.792C24.3076 24.344 24.4063 23.9467 24.6036 23.6C24.8009 23.2533 25.0703 22.9867 25.4116 22.8C25.7529 22.6133 26.1343 22.52 26.5556 22.52C26.9769 22.52 27.3583 22.6133 27.6996 22.8C28.0409 22.9867 28.3103 23.2533 28.5076 23.6C28.7049 23.9467 28.8036 24.344 28.8036 24.792C28.8036 25.24 28.7023 25.6373 28.4996 25.984C28.2969 26.3307 28.0196 26.6 27.6676 26.792C27.3209 26.9787 26.9369 27.072 26.5156 27.072ZM26.5156 26.28C26.7503 26.28 26.9689 26.224 27.1716 26.112C27.3796 26 27.5476 25.832 27.6756 25.608C27.8036 25.384 27.8676 25.112 27.8676 24.792C27.8676 24.472 27.8063 24.2027 27.6836 23.984C27.5609 23.76 27.3983 23.592 27.1956 23.48C26.9929 23.368 26.7743 23.312 26.5396 23.312C26.3049 23.312 26.0863 23.368 25.8836 23.48C25.6863 23.592 25.5289 23.76 25.4116 23.984C25.2943 24.2027 25.2356 24.472 25.2356 24.792C25.2356 25.2667 25.3556 25.6347 25.5956 25.896C25.8409 26.152 26.1476 26.28 26.5156 26.28Z" fill="#9B3A9B"/>
<path d="M15.8637 7.84147V2.93367L17.1807 4.22281C17.3983 4.44897 17.7647 4.44897 17.9823 4.22281C18.2113 4.00795 18.2113 3.64609 17.9823 3.43123L15.6919 1.16959C15.4743 0.943468 15.108 0.943468 14.8903 1.16959L12.6 3.43123C12.3709 3.64609 12.3709 4.00795 12.6 4.22281C12.8176 4.44897 13.1839 4.44897 13.4016 4.22281L14.7186 2.93367V7.84147C12.1533 8.12417 10.1378 10.2614 10.1378 12.8736C10.1378 15.678 12.4511 18 15.2911 18C18.1311 18 20.4826 15.678 20.4826 12.8736C20.4826 10.2614 18.4289 8.12417 15.8637 7.84147ZM15.2911 16.8692C13.0809 16.8692 11.283 15.0561 11.283 12.8736C11.283 10.6911 13.0809 8.91575 15.2911 8.91575C17.5013 8.91575 19.3374 10.6911 19.3374 12.8736C19.3374 15.0561 17.5013 16.8692 15.2911 16.8692Z" fill="#008080"/>
</svg>
