<svg width="7" height="10" viewBox="0 0 7 10" fill="none" xmlns="http://www.w3.org/2000/svg">
<path d="M3.17757 3.61564C3.40859 3.83885 2.92388 3.56417 3.24153 3.56417C3.55919 3.56417 3.05433 3.74878 3.27091 3.52557C3.50193 3.28747 3.30862 3.75819 3.30862 3.43081C3.30862 3.10342 3.50193 3.65402 3.27091 3.43081C3.05433 3.19271 3.62628 3.43081 3.30862 3.43081C2.99097 3.43081 3.47256 3.32608 3.24153 3.56417C3.24153 3.23679 3.02495 3.78739 3.24153 3.56417C3.24153 3.89155 2.96098 3.37754 3.17757 3.61564ZM1.17676 1.22042C1.81208 0.565662 2.57734 0.238281 3.47256 0.238281C4.36777 0.238281 5.12582 0.565662 5.74669 1.22042C6.382 1.8603 6.69966 2.64155 6.69966 3.56417C6.69966 4.02548 6.58415 4.55376 6.35313 5.14899C6.13654 5.74423 5.86942 6.30227 5.55176 6.8231C5.23411 7.34393 4.91645 7.83501 4.59879 8.29631C4.29558 8.74274 4.03568 9.09989 3.81909 9.36774L3.47256 9.74721C3.38592 9.64304 3.27041 9.50911 3.12602 9.34542C2.98163 9.16685 2.72173 8.82459 2.34632 8.31864C1.97091 7.7978 1.63881 7.29929 1.35003 6.8231C1.07569 6.33203 0.823011 5.78143 0.591987 5.17132C0.360964 4.5612 0.245453 4.02548 0.245453 3.56417C0.245453 2.64155 0.55589 1.8603 1.17676 1.22042Z" fill="#333333"/>
<g clip-path="url(#clip0_3702_3778)">
<path d="M4.35049 3.35587C4.10179 3.04641 3.78744 2.87598 3.46532 2.87598C3.1432 2.87598 2.82885 3.04641 2.58016 3.35587C2.35663 3.63403 2.22318 3.9846 2.22318 4.29363C2.22318 4.44375 2.2677 4.5581 2.35552 4.63351C2.4422 4.70794 2.55663 4.73312 2.6843 4.73311C2.82015 4.73311 2.971 4.7046 3.1192 4.67658C3.24871 4.65209 3.37104 4.62897 3.46533 4.62897C3.54671 4.62897 3.66144 4.65092 3.7829 4.67415C4.06675 4.72847 4.38847 4.79002 4.57432 4.63076C4.66268 4.55505 4.70747 4.44162 4.70747 4.29363C4.70748 3.9846 4.57403 3.63403 4.35049 3.35587Z" fill="white"/>
<path d="M4.37594 1.67459C4.28495 1.53632 4.15465 1.45703 4.01845 1.45703C3.88225 1.45703 3.75196 1.53633 3.66097 1.67459C3.57738 1.80161 3.53134 1.96841 3.53134 2.14427C3.53134 2.32013 3.57737 2.48693 3.66097 2.61395C3.75196 2.75221 3.88226 2.83151 4.01845 2.83151C4.15466 2.83151 4.28495 2.75221 4.37594 2.61395C4.45953 2.48693 4.50557 2.32013 4.50557 2.14427C4.50557 1.96841 4.45953 1.8016 4.37594 1.67459Z" fill="white"/>
<path d="M3.26974 1.67557C3.17874 1.5373 3.04846 1.45801 2.91225 1.45801C2.77605 1.45801 2.64575 1.53731 2.55477 1.67557C2.47118 1.80258 2.42514 1.96938 2.42514 2.14525C2.42514 2.32111 2.47117 2.48791 2.55477 2.61493C2.64576 2.75319 2.77605 2.83249 2.91225 2.83249C3.04846 2.83249 3.17874 2.75319 3.26974 2.61493C3.35333 2.48791 3.39936 2.32112 3.39936 2.14525C3.39936 1.96938 3.35333 1.80258 3.26974 1.67557Z" fill="white"/>
<path d="M5.29203 2.75411C5.25535 2.62551 5.17672 2.53206 5.07065 2.491C4.98528 2.45795 4.88893 2.46356 4.79932 2.50678C4.67583 2.56633 4.57489 2.68931 4.52241 2.84417C4.47952 2.97071 4.47417 3.10447 4.50736 3.22082C4.54404 3.34942 4.62266 3.44287 4.72875 3.48393C4.76546 3.49814 4.80419 3.5052 4.84355 3.5052C4.89573 3.5052 4.94901 3.49278 5.00008 3.46815C5.12357 3.40859 5.22451 3.28562 5.27699 3.13077V3.13076C5.31988 3.00422 5.32523 2.87045 5.29203 2.75411Z" fill="white"/>
<path d="M2.40828 2.84416C2.35579 2.6893 2.25485 2.56633 2.13137 2.50678C2.04176 2.46355 1.94539 2.45796 1.86003 2.49099C1.75395 2.53207 1.67532 2.62551 1.63864 2.7541C1.60545 2.87045 1.6108 3.00422 1.65369 3.13076V3.13076C1.70619 3.28562 1.80712 3.40859 1.9306 3.46814C1.98169 3.49278 2.03496 3.5052 2.08714 3.5052C2.1265 3.5052 2.16524 3.49813 2.20194 3.48393C2.30804 3.44285 2.38666 3.34941 2.42334 3.22081C2.45651 3.10448 2.45116 2.97071 2.40828 2.84416Z" fill="white"/>
</g>
<defs>
<clipPath id="clip0_3702_3778">
<rect width="3.69637" height="3.80952" fill="white" transform="translate(1.61716 1.19141)"/>
</clipPath>
</defs>
</svg>
