<svg width="40" height="18" viewBox="0 0 40 18" fill="none" xmlns="http://www.w3.org/2000/svg">
<g clip-path="url(#clip0_3719_11052)">
<path d="M22.6075 4.14516L24.4455 3.40361C24.5578 2.81028 25.0086 2.33524 25.5889 2.1878L25.6883 1.04239C25.7025 0.879 25.8121 0.739536 25.9675 0.687197C26.123 0.634858 26.2947 0.679497 26.4048 0.801041L26.8856 1.3314L27.1807 0.298777C27.2298 0.126819 27.3842 0.00609945 27.5629 -0.000133597C27.7416 -0.00567917 27.9041 0.103353 27.9651 0.271554L30.5103 7.29335C32.3413 7.7688 33.9401 8.94043 34.9221 10.5347C35.8216 11.995 36.101 13.668 35.7088 15.2455C35.4796 16.1675 35.0444 16.775 34.5993 17.1734H34.9494C34.9527 17.1734 34.956 17.1735 34.9593 17.1735C36.6154 17.2139 38.1501 16.2724 38.8668 14.7763C38.9652 14.5708 39.2115 14.4841 39.417 14.5824C39.6225 14.6809 39.7092 14.9272 39.6108 15.1326C38.7716 16.8846 36.9948 17.9997 35.0604 17.9997C35.0218 17.9997 27.1853 17.9997 27.1853 17.9997C26.9575 17.9997 26.7728 17.815 26.7728 17.5872C26.7728 16.4769 27.6584 15.9708 28.44 15.7851C28.0746 15.0726 28.043 14.446 28.0844 14.0361L27.9766 14.0217L25.5043 17.8125C25.4282 17.9293 25.2982 17.9997 25.1588 17.9997H23.6576C23.5074 17.9997 23.3691 17.918 23.2965 17.7865C23.2239 17.655 23.2286 17.4944 23.3087 17.3673C23.3246 17.342 24.8745 14.8811 25.7077 13.5033V6.57252C25.5851 6.58663 25.4474 6.59374 25.3257 6.59374C24.1291 6.59374 23.0038 5.91864 22.3978 4.72162C22.3973 4.72066 22.3818 4.68821 22.3793 4.68198C22.2941 4.47074 22.3962 4.23036 22.6075 4.14516Z" fill="#828282"/>
</g>
<g clip-path="url(#clip1_3719_11052)">
<path d="M9.47279 7.22394L10.9024 6.64718C10.9896 6.1857 11.3403 5.81622 11.7916 5.70155L11.8689 4.81067C11.88 4.68359 11.9653 4.57512 12.0861 4.53441C12.207 4.4937 12.3406 4.52842 12.4262 4.62296L12.8002 5.03546L13.0297 4.23231C13.0679 4.09856 13.188 4.00467 13.327 3.99982C13.466 3.99551 13.5923 4.08031 13.6398 4.21113L15.6194 9.67253C17.0435 10.0423 18.287 10.9536 19.0508 12.1936C19.7504 13.3294 19.9677 14.6306 19.6627 15.8576C19.4844 16.5747 19.146 17.0472 18.7997 17.357H19.072C19.0746 17.357 19.0772 17.3571 19.0797 17.3571C20.3678 17.3885 21.5615 16.6562 22.1189 15.4926C22.1954 15.3328 22.387 15.2653 22.5468 15.3418C22.7066 15.4184 22.7741 15.61 22.6976 15.7698C22.0449 17.1324 20.6629 17.9997 19.1584 17.9997C19.1284 17.9997 13.0333 17.9997 13.0333 17.9997C12.8561 17.9997 12.7125 17.8561 12.7125 17.6789C12.7125 16.8153 13.4013 16.4217 14.0092 16.2772C13.7249 15.7231 13.7004 15.2357 13.7326 14.9169L13.6488 14.9057L11.7259 17.8541C11.6666 17.9449 11.5656 17.9997 11.4572 17.9997H10.2896C10.1727 17.9997 10.0651 17.9361 10.0087 17.8339C9.95223 17.7316 9.95587 17.6067 10.0181 17.5078C10.0305 17.4882 11.236 15.5741 11.8841 14.5025V9.11188C11.7887 9.12286 11.6816 9.12839 11.587 9.12839C10.6563 9.12839 9.78099 8.60331 9.30971 7.6723C9.30932 7.67155 9.29723 7.64631 9.29531 7.64147C9.229 7.47717 9.30846 7.29021 9.47279 7.22394Z" fill="#B4B4B4"/>
</g>
<g clip-path="url(#clip2_3719_11052)">
<path d="M0.337585 10.3026L1.3587 9.89065C1.42106 9.56103 1.67155 9.29711 1.99389 9.2152L2.04912 8.57886C2.05701 8.48809 2.11792 8.41061 2.20426 8.38154C2.29062 8.35246 2.386 8.37726 2.44719 8.44478L2.71433 8.73943L2.87823 8.16575C2.90552 8.07021 2.9913 8.00315 3.0906 7.99969C3.18985 7.9966 3.28011 8.05718 3.314 8.15062L4.72804 12.0516C5.74524 12.3158 6.63347 12.9667 7.17904 13.8524C7.67875 14.6636 7.83396 15.5931 7.61609 16.4695C7.48875 16.9817 7.24699 17.3192 6.99969 17.5405H7.19419C7.19602 17.5405 7.19785 17.5406 7.19969 17.5406C8.11974 17.563 8.97238 17.04 9.37052 16.2088C9.42519 16.0946 9.56205 16.0465 9.67619 16.1011C9.79034 16.1558 9.83854 16.2926 9.78384 16.4068C9.31764 17.3801 8.33054 17.9996 7.25586 17.9996C7.23442 17.9996 2.8808 17.9996 2.8808 17.9996C2.75423 17.9996 2.65164 17.897 2.65164 17.7704C2.65164 17.1536 3.14364 16.8724 3.57786 16.7693C3.37483 16.3734 3.35729 16.0253 3.38031 15.7976L3.32042 15.7896L1.94694 17.8956C1.90462 17.9605 1.83244 17.9996 1.75499 17.9996H0.920988C0.83755 17.9996 0.760681 17.9542 0.720376 17.8811C0.680044 17.8081 0.682641 17.7189 0.727122 17.6483C0.735983 17.6342 1.59705 16.267 2.05994 15.5016V11.6512C1.9918 11.659 1.91529 11.6629 1.84772 11.6629C1.18294 11.6629 0.557726 11.2879 0.221097 10.6229C0.220817 10.6223 0.212186 10.6043 0.210811 10.6009C0.163452 10.4835 0.220206 10.35 0.337585 10.3026Z" fill="#B4B4B4"/>
</g>
<defs>
<clipPath id="clip0_3719_11052">
<rect width="18" height="18" fill="white" transform="matrix(-1 0 0 1 40 0)"/>
</clipPath>
<clipPath id="clip1_3719_11052">
<rect width="14" height="14" fill="white" transform="matrix(-1 0 0 1 23 4)"/>
</clipPath>
<clipPath id="clip2_3719_11052">
<rect width="10" height="10" fill="white" transform="matrix(-1 0 0 1 10 8)"/>
</clipPath>
</defs>
</svg>
