<svg width="145" height="107" viewBox="0 0 145 107" fill="none" xmlns="http://www.w3.org/2000/svg">
<path d="M30.8056 48.5339C30.8056 40.9622 24.6748 34.8283 17.1069 34.8283C9.53907 34.8283 3.40829 40.9622 3.40829 48.5339C3.40829 56.1056 9.53907 62.2395 17.1069 62.2395C24.6748 62.2395 30.8056 56.0924 30.8056 48.5339ZM119.853 33.1002C112.286 33.1002 106.155 39.2341 106.155 46.8058C106.155 54.3776 112.286 60.5115 119.853 60.5115C127.421 60.5115 133.552 54.3776 133.552 46.8058C133.552 39.2341 127.421 33.1002 119.853 33.1002ZM82.9238 41.0149C91.1377 43.2178 100.024 36.741 102.766 26.5442C105.509 16.3474 101.066 6.26936 92.8517 4.06643C84.6378 1.86351 75.7514 8.34037 73.0091 18.5372C70.2667 28.7471 74.7099 38.812 82.9238 41.0149ZM51.7557 41.0149C59.9696 38.812 64.4128 28.7471 61.6704 18.5372C58.9281 8.32718 50.0417 1.85031 41.8278 4.06643C33.6139 6.26936 29.1707 16.3342 31.9131 26.5442C34.6555 36.7542 43.5418 43.231 51.7557 41.0149ZM110.15 92.5001C100.446 108.488 76.4766 101.642 66.7728 101.642C57.0691 101.642 35.3806 110.783 25.6768 94.2149C15.9731 77.6468 34.2336 50.816 68.4868 50.816C102.16 50.816 119.853 76.5124 110.15 92.5001Z" fill="#00CCCC"/>
<path d="M82.9238 41.0154C91.1377 43.2183 100.024 36.7415 102.766 26.5447C104.309 20.7933 103.571 15.0816 101.158 10.7944C102.49 15.6884 102.766 23.1546 96.4379 30.8186C88.3953 40.5537 79.1003 37.1108 74.8285 34.6836C76.7139 37.7968 79.4827 40.092 82.9238 41.0154ZM51.7557 41.0154C59.9696 38.8125 64.4128 28.7476 61.6704 18.5377C61.064 16.2556 60.1279 14.1582 58.9808 12.2982C61.1958 19.1708 61.3276 28.431 54.775 33.6811C48.0509 39.0631 39.4942 36.3721 36.1453 34.9739C40.2193 39.9865 46.1523 42.5324 51.7557 41.0154ZM30.8056 48.5344C30.8056 45.3685 29.7377 42.4664 27.9314 40.1448C29.6849 45.0651 29.4608 51.9113 23.3828 55.961C15.4062 61.2903 8.22063 56.9635 4.89815 54.7606C7.16588 59.1928 11.7804 62.24 17.107 62.24C24.6748 62.24 30.8056 56.0929 30.8056 48.5344ZM130.691 38.4299C132.445 43.3503 132.22 50.1965 126.142 54.2462C118.166 59.5754 110.98 55.2487 107.658 53.0458C109.926 57.478 114.54 60.5252 119.867 60.5252C127.435 60.5252 133.565 54.3913 133.565 46.8195C133.552 43.6537 132.484 40.7384 130.691 38.4299ZM109.728 71.553C113.551 78.6235 113.92 86.2875 110.15 92.5006C100.446 108.488 76.4766 101.642 66.7728 101.642C57.0691 101.642 35.3806 110.784 25.6769 94.2154C25.5318 93.9516 25.3868 93.6878 25.2418 93.4371C30.2123 97.0779 38.7954 101.035 50.5032 97.9353C69.9107 92.7908 84.7564 100.217 96.7411 96.2205C108.119 92.4214 114.197 84.9948 109.728 71.553Z" fill="#008080"/>
<path d="M17.107 34.8287C9.53907 34.8287 3.40829 40.9626 3.40829 48.5344C3.40829 50.7901 3.94886 52.9006 4.91132 54.7738C4.37076 49.5897 4.95088 42.0839 11.6881 38.5355C16.3291 36.0951 20.3503 35.8445 23.4223 36.3589C21.5237 35.3828 19.3879 34.8287 17.107 34.8287ZM33.3634 30.4888C32.2559 23.9592 31.7153 13.1029 39.0854 8.82893C45.5854 5.05625 51.0701 5.80815 54.9068 7.50981C51.1097 4.26478 46.3633 2.84014 41.8278 4.05372C33.6139 6.25665 29.1707 16.3215 31.9131 26.5315C32.2823 27.9298 32.7701 29.2489 33.3634 30.4888ZM119.853 33.1007C112.286 33.1007 106.155 39.2346 106.155 46.8063C106.155 48.231 106.379 49.616 106.774 50.9088C106.814 46.6348 107.961 39.6699 114.421 36.2402C120.17 33.193 125.51 34.7628 128.911 36.5304C126.512 34.4066 123.334 33.1007 119.853 33.1007ZM81.8954 9.97656C88.013 5.64986 94.5788 6.3358 98.6133 7.41747C97.018 5.83453 95.0799 4.66052 92.8649 4.06692C84.651 1.86399 75.7646 8.34086 73.0223 18.5376C72.2312 21.4925 72.0334 24.4473 72.3762 27.191C73.4046 21.9146 75.9097 14.2109 81.8954 9.97656ZM68.4868 50.8164C84.1763 50.8164 96.3983 56.3963 104.006 63.9812C96.2533 57.6495 83.3721 49.3786 52.5072 57.1086C30.4233 62.6357 24.398 75.4707 23.0927 84.7441C22.8817 69.0466 40.2589 50.8164 68.4868 50.8164Z" fill="white"/>
<path d="M68.4869 50.8159C34.2337 50.8159 15.9732 77.6599 25.6769 94.2148C30.2915 102.09 37.6089 104.148 45.0713 104.148C53.2984 104.148 61.6837 101.628 66.7729 101.628C71.2556 101.628 78.7708 103.092 86.5232 103.092C95.5678 103.092 104.929 101.101 110.15 92.5C119.854 76.5123 102.16 50.8159 68.4869 50.8159ZM111.996 69.7452C116.676 78.0688 116.887 86.8937 112.589 93.9774C107.697 102.037 99.1803 105.942 86.51 105.942C81.9482 105.942 77.5842 105.467 73.7343 105.045C70.9524 104.741 68.5396 104.478 66.7597 104.478C64.7557 104.478 61.9078 104.966 58.8886 105.467C54.6696 106.179 49.8968 106.984 45.0449 106.984C34.8138 106.984 27.6678 103.277 23.1851 95.6263C18.8474 88.226 19.2297 78.9922 24.2135 70.286C27.8787 63.8883 33.6667 58.4404 40.9445 54.4962C48.908 50.1959 58.414 47.927 68.4605 47.927C91.5201 47.9534 106.063 59.2055 111.996 69.7452ZM30.8057 48.5338C30.8057 40.9621 24.6749 34.8282 17.107 34.8282C9.53915 34.8282 3.40838 40.9621 3.40838 48.5338C3.40838 56.1055 9.53915 62.2394 17.107 62.2394C24.6749 62.2394 30.8057 56.0923 30.8057 48.5338ZM17.107 65.0887C7.98339 65.0887 0.547348 57.6621 0.547348 48.5206C0.547348 39.3791 7.9702 31.9525 17.107 31.9525C26.2439 31.9525 33.6667 39.3791 33.6667 48.5206C33.6667 57.6621 26.2439 65.0887 17.107 65.0887ZM133.552 46.8057C133.552 39.234 127.421 33.1001 119.854 33.1001C112.286 33.1001 106.155 39.234 106.155 46.8057C106.155 54.3775 112.286 60.5114 119.854 60.5114C127.421 60.5114 133.552 54.3907 133.552 46.8057ZM136.413 46.8057C136.413 55.934 128.99 63.3739 119.854 63.3739C110.73 63.3739 103.294 55.9472 103.294 46.8057C103.294 37.6775 110.717 30.2376 119.854 30.2376C128.977 30.2508 136.413 37.6775 136.413 46.8057ZM82.9239 41.0148C84.005 41.305 85.1125 41.4501 86.2068 41.4501C93.3923 41.4501 100.393 35.3954 102.78 26.5441C105.522 16.3341 101.079 6.26927 92.8649 4.06634C91.7838 3.77614 90.6763 3.63103 89.582 3.63103C82.3965 3.63103 75.3955 9.68578 73.0091 18.5371C70.2668 28.747 74.71 38.8119 82.9239 41.0148ZM71.2424 33.9312C69.1065 29.09 68.7506 23.365 70.2404 17.7984C72.93 7.77306 80.8803 0.781738 89.5688 0.781738C90.9268 0.781738 92.2848 0.953224 93.5901 1.30939C103.32 3.92124 108.673 15.5822 105.522 27.2828C102.832 37.3081 94.8822 44.2994 86.1936 44.2994C84.8356 44.2994 83.4776 44.1279 82.1724 43.7718C77.36 42.479 73.4706 38.9834 71.2424 33.9312ZM31.9132 26.5441C34.2864 35.3954 41.3005 41.4501 48.4861 41.4501C49.5804 41.4501 50.6747 41.305 51.769 41.0148C59.9829 38.7987 64.4261 28.747 61.6837 18.5371C59.3105 9.68578 52.2964 3.63103 45.1108 3.63103C44.0165 3.63103 42.9222 3.77614 41.8279 4.06634C33.614 6.26927 29.1708 16.3341 31.9132 26.5441ZM29.1576 27.2828C26.0065 15.569 31.3594 3.92124 41.0896 1.30939C42.3948 0.953224 43.7528 0.781738 45.1108 0.781738V3.63103V0.781738C53.7994 0.781738 61.7364 7.78625 64.4393 17.7984C67.5903 29.5121 62.2374 41.1599 52.5073 43.7718C51.2021 44.1279 49.8441 44.2994 48.4861 44.2994C39.7975 44.3126 31.8473 37.3081 29.1576 27.2828ZM48.9739 61.9888C49.2639 62.7143 48.9211 63.5585 48.1828 63.8487C35.6444 68.9142 32.5065 81.0105 32.4801 81.1292C32.3219 81.7755 31.7418 82.2109 31.0957 82.2109C30.9771 82.2109 30.8716 82.1977 30.753 82.1713C29.9883 81.9866 29.5268 81.2083 29.7114 80.4432C29.8432 79.8892 33.1921 66.8168 47.1149 61.1841C47.84 60.9071 48.6706 61.2501 48.9739 61.9888Z" fill="#800080"/>
<path d="M115.925 39.7353C114.304 40.6587 113.143 42.1624 112.656 43.9565C112.168 45.7505 112.405 47.6236 113.341 49.2461C113.658 49.8001 113.473 50.4993 112.919 50.8159C112.735 50.9214 112.537 50.9742 112.352 50.9742C111.957 50.9742 111.561 50.7631 111.35 50.3937C110.111 48.2436 109.795 45.7505 110.441 43.3628C111.087 40.9752 112.629 38.9834 114.778 37.7566C115.332 37.44 116.031 37.6247 116.347 38.1787C116.677 38.7196 116.479 39.4187 115.925 39.7353ZM119.393 33.0737C117.178 33.0737 114.989 33.6541 113.064 34.7622C110.111 36.4507 107.988 39.1812 107.105 42.4658C106.222 45.7373 106.657 49.167 108.357 52.1086C110.625 56.0528 114.871 58.4931 119.432 58.4931C121.647 58.4931 123.836 57.9127 125.761 56.8046C131.852 53.3222 133.975 45.5394 130.468 39.4583C128.187 35.5141 123.955 33.0737 119.393 33.0737Z" fill="#800080"/>
<path d="M126.894 58.7961C124.613 60.1021 122.029 60.788 119.419 60.788C114.04 60.788 109.029 57.8991 106.353 53.2427C104.349 49.7602 103.835 45.7237 104.876 41.8455C105.931 37.9805 108.423 34.7486 111.917 32.7568C114.198 31.4508 116.782 30.7649 119.392 30.7649C124.772 30.7649 129.782 33.6538 132.458 38.3103C136.585 45.4862 134.093 54.6805 126.894 58.7961ZM134.66 37.0439C129.821 28.6411 119.076 25.7391 110.638 30.5538C102.213 35.3818 99.2993 46.1062 104.138 54.509C108.489 62.0676 117.613 65.1807 125.536 62.2258C126.42 61.8961 127.303 61.4871 128.147 60.9991C129.004 60.511 129.795 59.9702 130.533 59.3634C137.099 54.0341 139.011 44.6024 134.66 37.0439Z" fill="#800080"/>
<path d="M128.253 67.6741L133.909 64.4423L132.05 61.2104C131.219 61.8832 130.323 62.5032 129.36 63.0572C128.398 63.6112 127.409 64.0729 126.407 64.4423L128.253 67.6741Z" fill="#800080"/>
<path d="M143.995 81.9992L135.043 66.4336L129.387 69.6654L138.339 85.231C139.235 86.7876 141.226 87.3284 142.782 86.4314C143.56 85.9829 144.087 85.2706 144.311 84.4659C144.536 83.6613 144.443 82.7643 143.995 81.9992Z" fill="#800080"/>
</svg>
