<svg width="185" height="178" viewBox="0 0 185 178" fill="none" xmlns="http://www.w3.org/2000/svg">
<path d="M15.7705 151.486C17.0874 151.766 18.1452 152.425 18.944 153.461C19.7428 154.476 20.1421 155.642 20.1421 156.958C20.1421 158.858 19.4729 160.369 18.1344 161.492C16.8175 162.593 14.9717 163.144 12.5969 163.144H2.00774V140.411H12.2407C14.5507 140.411 16.3533 140.94 17.6487 141.998C18.9656 143.055 19.624 144.491 19.624 146.304C19.624 147.643 19.2678 148.755 18.5554 149.64C17.8645 150.525 16.9362 151.14 15.7705 151.486ZM7.54521 149.608H11.1721C12.0788 149.608 12.7696 149.413 13.2446 149.025C13.7411 148.614 13.9894 148.021 13.9894 147.244C13.9894 146.466 13.7411 145.873 13.2446 145.463C12.7696 145.052 12.0788 144.847 11.1721 144.847H7.54521V149.608ZM11.6254 158.675C12.5538 158.675 13.2662 158.47 13.7627 158.059C14.2808 157.628 14.5399 157.012 14.5399 156.214C14.5399 155.415 14.27 154.789 13.7303 154.335C13.2122 153.882 12.489 153.655 11.5607 153.655H7.54521V158.675H11.6254Z" fill="#800080"/>
<path d="M27.8584 140.411V154.012C27.8584 155.372 28.193 156.419 28.8623 157.153C29.5315 157.887 30.5138 158.254 31.8091 158.254C33.1044 158.254 34.0975 157.887 34.7883 157.153C35.4792 156.419 35.8246 155.372 35.8246 154.012V140.411H41.3621V153.979C41.3621 156.009 40.9303 157.725 40.0668 159.128C39.2032 160.531 38.0374 161.589 36.5694 162.302C35.123 163.014 33.5038 163.37 31.712 163.37C29.9201 163.37 28.3118 163.025 26.8869 162.334C25.4837 161.622 24.3719 160.564 23.5515 159.16C22.7311 157.736 22.3209 156.009 22.3209 153.979V140.411H27.8584Z" fill="#800080"/>
<path d="M53.3474 163.37C51.6851 163.37 50.1955 163.1 48.8786 162.561C47.5617 162.021 46.5038 161.222 45.705 160.164C44.9279 159.106 44.5177 157.833 44.4745 156.343H50.3682C50.4545 157.185 50.746 157.833 51.2425 158.286C51.7391 158.718 52.3867 158.934 53.1855 158.934C54.0059 158.934 54.6535 158.75 55.1285 158.383C55.6034 157.995 55.8409 157.466 55.8409 156.797C55.8409 156.235 55.6466 155.771 55.258 155.404C54.891 155.037 54.4268 154.735 53.8655 154.497C53.3258 154.26 52.5486 153.99 51.534 153.688C50.0659 153.234 48.8678 152.781 47.9395 152.328C47.0112 151.874 46.2124 151.205 45.5431 150.32C44.8739 149.435 44.5393 148.28 44.5393 146.855C44.5393 144.739 45.3057 143.088 46.8384 141.9C48.3712 140.691 50.3682 140.087 52.8293 140.087C55.3335 140.087 57.3521 140.691 58.8849 141.9C60.4177 143.088 61.238 144.75 61.346 146.887H55.3551C55.312 146.153 55.0421 145.581 54.5456 145.171C54.049 144.739 53.4122 144.523 52.635 144.523C51.9657 144.523 51.426 144.707 51.0158 145.074C50.6057 145.419 50.4006 145.927 50.4006 146.596C50.4006 147.33 50.746 147.902 51.4368 148.312C52.1276 148.722 53.2071 149.165 54.6751 149.64C56.1431 150.136 57.3305 150.611 58.2372 151.065C59.1655 151.518 59.9643 152.177 60.6335 153.04C61.3028 153.904 61.6374 155.015 61.6374 156.376C61.6374 157.671 61.3028 158.847 60.6335 159.905C59.9859 160.963 59.036 161.805 57.7839 162.431C56.5317 163.057 55.0529 163.37 53.3474 163.37Z" fill="#800080"/>
<path d="M81.216 167.029L78.3016 163.111C77.438 163.284 76.5961 163.37 75.7757 163.37C73.6384 163.37 71.6739 162.874 69.882 161.881C68.1118 160.888 66.6977 159.506 65.6399 157.736C64.6036 155.944 64.0855 153.936 64.0855 151.712C64.0855 149.489 64.6036 147.492 65.6399 145.722C66.6977 143.951 68.1118 142.57 69.882 141.577C71.6739 140.583 73.6384 140.087 75.7757 140.087C77.913 140.087 79.8668 140.583 81.637 141.577C83.4289 142.57 84.8321 143.951 85.8468 145.722C86.883 147.492 87.4012 149.489 87.4012 151.712C87.4012 153.655 87.0018 155.436 86.203 157.056C85.4258 158.653 84.3356 159.981 82.9323 161.039L87.9193 167.029H81.216ZM69.7525 151.712C69.7525 153.72 70.2922 155.328 71.3716 156.537C72.4727 157.725 73.9407 158.319 75.7757 158.319C77.5892 158.319 79.0356 157.714 80.115 156.505C81.216 155.296 81.7665 153.699 81.7665 151.712C81.7665 149.705 81.216 148.107 80.115 146.92C79.0356 145.711 77.5892 145.106 75.7757 145.106C73.9407 145.106 72.4727 145.7 71.3716 146.887C70.2922 148.075 69.7525 149.683 69.7525 151.712Z" fill="#800080"/>
<path d="M95.101 140.411V154.012C95.101 155.372 95.4356 156.419 96.1048 157.153C96.7741 157.887 97.7564 158.254 99.0517 158.254C100.347 158.254 101.34 157.887 102.031 157.153C102.722 156.419 103.067 155.372 103.067 154.012V140.411H108.605V153.979C108.605 156.009 108.173 157.725 107.309 159.128C106.446 160.531 105.28 161.589 103.812 162.302C102.366 163.014 100.746 163.37 98.9545 163.37C97.1627 163.37 95.5543 163.025 94.1295 162.334C92.7262 161.622 91.6144 160.564 90.794 159.16C89.9737 157.736 89.5635 156.009 89.5635 153.979V140.411H95.101Z" fill="#800080"/>
<path d="M118.847 144.704V149.302H126.263V153.577H118.847V158.564H127.234V163H113.31V140.267H127.234V144.704H118.847Z" fill="#800080"/>
<path d="M166.823 144.284V140.267H183.972V144.284H178.022V161.992H172.735V144.284H166.823V144.284ZM163.747 140.193V144.228H155.881V148.891H162.807V152.926H155.881V157.975H163.747V161.992H150.595V140.193H163.747ZM136.154 149.517H139.432C140.243 149.517 140.869 149.278 141.33 148.798C141.79 148.319 142.03 147.711 142.03 146.937C142.03 146.163 141.79 145.518 141.311 145.039C140.832 144.542 140.206 144.284 139.432 144.284H136.154V149.517V149.517ZM147.408 146.919C147.408 148.393 146.874 149.793 145.824 151.157C145.271 151.857 144.443 152.429 143.337 152.889C142.232 153.332 140.924 153.553 139.432 153.553H136.154V162.011H130.849V140.267H139.432C141.956 140.267 143.908 140.912 145.308 142.22C146.708 143.528 147.408 145.095 147.408 146.919Z" stroke="#800080" stroke-width="0.90685"/>
<path d="M139.126 40.5068C137.504 41.4301 136.344 42.9339 135.856 44.7279C135.368 46.5219 135.605 48.3951 136.541 50.0176C136.858 50.5716 136.673 51.2708 136.119 51.5873C135.935 51.6929 135.737 51.7456 135.553 51.7456C135.157 51.7456 134.762 51.5346 134.551 51.1652C133.311 49.0151 132.995 46.5219 133.641 44.1343C134.287 41.7467 135.829 39.7549 137.979 38.5281C138.532 38.2115 139.231 38.3962 139.547 38.9502C139.877 39.491 139.679 40.1902 139.126 40.5068ZM142.593 33.8452C140.378 33.8452 138.189 34.4256 136.265 35.5337C133.311 37.2222 131.189 39.9527 130.305 43.2373C129.422 46.5087 129.857 49.9384 131.558 52.8801C133.825 56.8242 138.071 59.2646 142.633 59.2646C144.848 59.2646 147.036 58.6842 148.961 57.5761C155.052 54.0937 157.175 46.3109 153.668 40.2297C151.387 36.2856 147.155 33.8452 142.593 33.8452Z" fill="#800080"/>
<path d="M150.095 59.5676C147.814 60.8736 145.23 61.5595 142.619 61.5595C137.24 61.5595 132.23 58.6706 129.553 54.0141C127.549 50.5317 127.035 46.4952 128.077 42.617C129.131 38.752 131.623 35.5201 135.117 33.5283C137.398 32.2223 139.982 31.5364 142.593 31.5364C147.972 31.5364 152.982 34.4253 155.659 39.0817C159.785 46.2577 157.293 55.452 150.095 59.5676ZM157.86 37.8154C153.022 29.4126 142.276 26.5106 133.838 31.3253C125.413 36.1533 122.5 46.8777 127.338 55.2805C131.689 62.839 140.813 65.9522 148.737 62.9973C149.62 62.6676 150.503 62.2586 151.347 61.7706C152.204 61.2825 152.995 60.7416 153.734 60.1348C160.299 54.8056 162.211 45.3739 157.86 37.8154Z" fill="#800080"/>
<path d="M151.453 68.4456L157.109 65.2138L155.25 61.9819C154.42 62.6547 153.523 63.2747 152.561 63.8287C151.598 64.3827 150.609 64.8444 149.607 65.2138L151.453 68.4456Z" fill="#800080"/>
<path d="M167.195 82.7707L158.243 67.2051L152.587 70.4369L161.539 86.0025C162.436 87.5591 164.427 88.0999 165.982 87.2029C166.76 86.7544 167.288 86.0421 167.512 85.2374C167.736 84.4328 167.644 83.5358 167.195 82.7707Z" fill="#800080"/>
<path d="M53.8056 48.5339C53.8056 40.9622 47.6749 34.8283 40.107 34.8283C32.5391 34.8283 26.4083 40.9622 26.4083 48.5339C26.4083 56.1056 32.5391 62.2395 40.107 62.2395C47.6749 62.2395 53.8056 56.0924 53.8056 48.5339ZM142.853 33.1002C135.286 33.1002 129.155 39.2341 129.155 46.8058C129.155 54.3776 135.286 60.5115 142.853 60.5115C150.421 60.5115 156.552 54.3776 156.552 46.8058C156.552 39.2341 150.421 33.1002 142.853 33.1002ZM105.924 41.0149C114.138 43.2178 123.024 36.741 125.766 26.5442C128.509 16.3474 124.066 6.26936 115.852 4.06643C107.638 1.86351 98.7515 8.34037 96.0091 18.5372C93.2667 28.7471 97.7099 38.812 105.924 41.0149ZM74.7557 41.0149C82.9697 38.812 87.4128 28.7471 84.6705 18.5372C81.9281 8.32718 73.0418 1.85031 64.8278 4.06643C56.6139 6.26936 52.1708 16.3342 54.9131 26.5442C57.6555 36.7542 66.5418 43.231 74.7557 41.0149ZM133.15 92.5001C123.446 108.488 99.4766 101.642 89.7728 101.642C80.0691 101.642 58.3806 110.783 48.6769 94.2149C38.9731 77.6468 57.2336 50.816 91.4868 50.816C125.16 50.816 142.853 76.5124 133.15 92.5001Z" fill="#00CCCC"/>
<path d="M105.924 41.0154C114.138 43.2183 123.024 36.7415 125.766 26.5447C127.309 20.7933 126.571 15.0816 124.158 10.7944C125.49 15.6884 125.766 23.1546 119.438 30.8186C111.395 40.5537 102.1 37.1108 97.8286 34.6836C99.714 37.7968 102.483 40.092 105.924 41.0154ZM74.7558 41.0154C82.9697 38.8125 87.4129 28.7476 84.6705 18.5377C84.064 16.2556 83.1279 14.1582 81.9809 12.2982C84.1958 19.1708 84.3277 28.431 77.775 33.6811C71.0509 39.0631 62.4942 36.3721 59.1454 34.9739C63.2194 39.9865 69.1524 42.5324 74.7558 41.0154ZM53.8057 48.5344C53.8057 45.3685 52.7377 42.4664 50.9315 40.1448C52.685 45.0651 52.4608 51.9113 46.3828 55.961C38.4062 61.2903 31.2207 56.9635 27.8982 54.7606C30.1659 59.1928 34.7805 62.24 40.107 62.24C47.6749 62.24 53.8057 56.0929 53.8057 48.5344ZM153.691 38.4299C155.445 43.3503 155.221 50.1965 149.143 54.2462C141.166 59.5754 133.98 55.2487 130.658 53.0458C132.926 57.478 137.54 60.5252 142.867 60.5252C150.435 60.5252 156.565 54.3913 156.565 46.8195C156.552 43.6537 155.484 40.7384 153.691 38.4299ZM132.728 71.553C136.551 78.6235 136.921 86.2875 133.15 92.5006C123.446 108.488 99.4766 101.642 89.7729 101.642C80.0691 101.642 58.3807 110.784 48.6769 94.2154C48.5319 93.9516 48.3869 93.6878 48.2418 93.4371C53.2124 97.0779 61.7954 101.035 73.5033 97.9353C92.9108 92.7908 107.756 100.217 119.741 96.2205C131.119 92.4214 137.197 84.9948 132.728 71.553Z" fill="#008080"/>
<path d="M40.107 34.8287C32.5391 34.8287 26.4083 40.9626 26.4083 48.5344C26.4083 50.7901 26.9489 52.9006 27.9114 54.7738C27.3708 49.5897 27.9509 42.0839 34.6882 38.5355C39.3291 36.0951 43.3504 35.8445 46.4223 36.3589C44.5238 35.3828 42.3879 34.8287 40.107 34.8287ZM56.3634 30.4888C55.2559 23.9592 54.7154 13.1029 62.0855 8.82893C68.5854 5.05625 74.0702 5.80815 77.9068 7.50981C74.1097 4.26478 69.3633 2.84014 64.8278 4.05372C56.6139 6.25665 52.1708 16.3215 54.9131 26.5315C55.2823 27.9298 55.7701 29.2489 56.3634 30.4888ZM142.854 33.1007C135.286 33.1007 129.155 39.2346 129.155 46.8063C129.155 48.231 129.379 49.616 129.775 50.9088C129.814 46.6348 130.961 39.6699 137.422 36.2402C143.17 33.193 148.51 34.7628 151.911 36.5304C149.512 34.4066 146.334 33.1007 142.854 33.1007ZM104.895 9.97656C111.013 5.64986 117.579 6.3358 121.613 7.41747C120.018 5.83453 118.08 4.66052 115.865 4.06692C107.651 1.86399 98.7647 8.34086 96.0223 18.5376C95.2312 21.4925 95.0334 24.4473 95.3762 27.191C96.4046 21.9146 98.9097 14.2109 104.895 9.97656ZM91.4868 50.8164C107.176 50.8164 119.398 56.3963 127.006 63.9812C119.253 57.6495 106.372 49.3786 75.5073 57.1086C53.4233 62.6357 47.398 75.4707 46.0927 84.7441C45.8818 69.0466 63.2589 50.8164 91.4868 50.8164Z" fill="white"/>
<path d="M91.4869 50.8159C57.2337 50.8159 38.9732 77.6599 48.677 94.2148C53.2915 102.09 60.6089 104.148 68.0713 104.148C76.2984 104.148 84.6837 101.628 89.7729 101.628C94.2556 101.628 101.771 103.092 109.523 103.092C118.568 103.092 127.929 101.101 133.15 92.5C142.854 76.5123 125.16 50.8159 91.4869 50.8159ZM134.996 69.7452C139.676 78.0688 139.887 86.8937 135.589 93.9774C130.697 102.037 122.18 105.942 109.51 105.942C104.948 105.942 100.584 105.467 96.7343 105.045C93.9524 104.741 91.5396 104.478 89.7597 104.478C87.7557 104.478 84.9079 104.966 81.8886 105.467C77.6696 106.179 72.8968 106.984 68.0449 106.984C57.8138 106.984 50.6678 103.277 46.1851 95.6263C41.8474 88.226 42.2297 78.9922 47.2135 70.286C50.8788 63.8883 56.6667 58.4404 63.9446 54.4962C71.908 50.1959 81.414 47.927 91.4605 47.927C114.52 47.9534 129.063 59.2055 134.996 69.7452ZM53.8057 48.5338C53.8057 40.9621 47.6749 34.8282 40.107 34.8282C32.5392 34.8282 26.4084 40.9621 26.4084 48.5338C26.4084 56.1055 32.5392 62.2394 40.107 62.2394C47.6749 62.2394 53.8057 56.0923 53.8057 48.5338ZM40.107 65.0887C30.9834 65.0887 23.5474 57.6621 23.5474 48.5206C23.5474 39.3791 30.9702 31.9525 40.107 31.9525C49.2439 31.9525 56.6667 39.3791 56.6667 48.5206C56.6667 57.6621 49.2439 65.0887 40.107 65.0887ZM156.552 46.8057C156.552 39.234 150.421 33.1001 142.854 33.1001C135.286 33.1001 129.155 39.234 129.155 46.8057C129.155 54.3775 135.286 60.5114 142.854 60.5114C150.421 60.5114 156.552 54.3907 156.552 46.8057ZM159.413 46.8057C159.413 55.934 151.99 63.3739 142.854 63.3739C133.73 63.3739 126.294 55.9472 126.294 46.8057C126.294 37.6775 133.717 30.2376 142.854 30.2376C151.977 30.2508 159.413 37.6775 159.413 46.8057ZM105.924 41.0148C107.005 41.305 108.112 41.4501 109.207 41.4501C116.392 41.4501 123.393 35.3954 125.78 26.5441C128.522 16.3341 124.079 6.26927 115.865 4.06634C114.784 3.77614 113.676 3.63103 112.582 3.63103C105.397 3.63103 98.3956 9.68578 96.0092 18.5371C93.2668 28.747 97.71 38.8119 105.924 41.0148ZM94.2424 33.9312C92.1066 29.09 91.7506 23.365 93.2404 17.7984C95.9301 7.77306 103.88 0.781738 112.569 0.781738C113.927 0.781738 115.285 0.953224 116.59 1.30939C126.32 3.92124 131.673 15.5822 128.522 27.2828C125.832 37.3081 117.882 44.2994 109.194 44.2994C107.836 44.2994 106.478 44.1279 105.172 43.7718C100.36 42.479 96.4706 38.9834 94.2424 33.9312ZM54.9132 26.5441C57.2864 35.3954 64.3005 41.4501 71.4861 41.4501C72.5804 41.4501 73.6747 41.305 74.769 41.0148C82.9829 38.7987 87.4261 28.747 84.6837 18.5371C82.3105 9.68578 75.2964 3.63103 68.1109 3.63103C67.0165 3.63103 65.9222 3.77614 64.8279 4.06634C56.614 6.26927 52.1708 16.3341 54.9132 26.5441ZM52.1576 27.2828C49.0066 15.569 54.3595 3.92124 64.0896 1.30939C65.3949 0.953224 66.7528 0.781738 68.1109 0.781738V3.63103V0.781738C76.7994 0.781738 84.7365 7.78625 87.4393 17.7984C90.5904 29.5121 85.2375 41.1599 75.5073 43.7718C74.2021 44.1279 72.8441 44.2994 71.4861 44.2994C62.7975 44.3126 54.8473 37.3081 52.1576 27.2828ZM71.9739 61.9888C72.264 62.7143 71.9212 63.5585 71.1828 63.8487C58.6444 68.9142 55.5065 81.0105 55.4801 81.1292C55.3219 81.7755 54.7418 82.2109 54.0958 82.2109C53.9771 82.2109 53.8716 82.1977 53.753 82.1713C52.9883 81.9866 52.5268 81.2083 52.7114 80.4432C52.8432 79.8892 56.1921 66.8168 70.1149 61.1841C70.84 60.9071 71.6707 61.2501 71.9739 61.9888Z" fill="#800080"/>
</svg>
