<svg width="49" height="60" viewBox="0 0 49 60" fill="none" xmlns="http://www.w3.org/2000/svg">
<path d="M0.09375 59.0001C0.09375 59.5521 0.541445 59.9998 1.09351 59.9998H47.0939C47.646 59.9998 48.0937 59.5521 48.0937 59.0001V53.0001C48.0937 49.061 46.7181 45.246 44.2036 42.2138C44.9859 41.2223 45.0427 39.8403 44.3437 38.7883C44.0141 38.2861 43.5398 37.8957 42.9837 37.6686C43.8516 36.8067 44.6051 35.8376 45.2262 34.7842C46.4737 32.6332 47.1186 30.186 47.0939 27.6999C47.0633 24.9826 46.4416 22.3051 45.2725 19.8519C44.6485 18.5033 43.8923 17.2202 43.0148 16.0209C43.327 10.584 42.032 5.17502 39.2909 0.468734C39.1448 0.235731 38.9091 0.073224 38.6395 0.0192075C38.3698 -0.0343511 38.0897 0.0251586 37.8654 0.184461C35.1266 2.09975 32.6729 4.39362 30.5782 6.99785C26.3443 5.68315 21.8115 5.68635 17.5795 7.00655C15.4884 4.40049 13.038 2.10342 10.3019 0.184461C10.0776 0.0251586 9.79792 -0.0343511 9.52784 0.0192075C9.25822 0.073224 9.02247 0.235731 8.87644 0.468734C6.12756 5.17686 4.8362 10.5936 5.16534 16.0355C4.291 17.2298 3.53752 18.5079 2.91542 19.8515C1.74583 22.3042 1.12418 24.9826 1.09351 27.6999C1.06833 30.186 1.71333 32.6327 2.96028 34.7838C3.58192 35.838 4.33587 36.8076 5.20425 37.67C4.64852 37.897 4.17427 38.2866 3.84422 38.7883C3.14522 39.8403 3.20152 41.2223 3.9843 42.2138C1.46979 45.246 0.09375 49.061 0.09375 53.0001V59.0001ZM17.2398 57.9998C17.7901 54.6151 20.6657 52.0974 24.0935 51.9999C27.5217 52.0974 30.3974 54.6151 30.9476 57.9998H17.2398ZM5.80941 41.2259C5.58877 41.0863 5.43359 40.8638 5.37911 40.6084C5.3251 40.3589 5.37454 40.098 5.51553 39.8856C5.70275 39.6031 6.01953 39.4342 6.35782 39.4356C6.55237 39.4356 6.7428 39.4914 6.90668 39.5963C9.33558 41.1504 12.0039 42.2948 14.8041 42.9833C17.8459 43.7134 20.9651 44.0719 24.0935 44.0513C27.2196 44.0723 30.3365 43.7148 33.3761 42.9856C36.179 42.2966 38.85 41.1513 41.2817 39.5958C41.7468 39.2969 42.3657 39.4255 42.6724 39.8851C42.8134 40.098 42.8628 40.3589 42.8092 40.6084C42.7548 40.8634 42.5996 41.0858 42.3789 41.225C39.761 42.8995 36.8858 44.1327 33.8682 44.8752C30.6675 45.6434 27.3853 46.021 24.0935 46C20.7994 46.021 17.5149 45.6424 14.312 44.8734C11.2971 44.1318 8.42463 42.8995 5.80941 41.2259ZM4.68697 33.7753C3.62038 31.9296 3.07014 29.8312 3.09349 27.6999C3.12462 25.2723 3.68355 22.88 4.73092 20.6896C5.34661 19.3603 6.10376 18.1014 6.98953 16.9346C7.09802 16.7899 7.16623 16.6187 7.18637 16.4388C7.19141 16.4004 7.1937 16.361 7.1937 16.3221V16.3198C7.1937 16.2818 7.19186 16.2433 7.18729 16.2054C6.8522 11.4528 7.84281 6.69984 10.0488 2.47695C12.0932 4.00818 13.954 5.77058 15.5937 7.7289C15.4381 7.7939 15.281 7.85296 15.1259 7.92162C14.6278 8.14913 14.4053 8.73461 14.6264 9.23587C14.848 9.73666 15.4312 9.96646 15.9347 9.75085C21.1263 7.42723 27.0616 7.42723 32.2532 9.75085C32.7567 9.96646 33.3399 9.73666 33.5615 9.23587C33.7826 8.73461 33.5601 8.14913 33.0616 7.92162C32.8986 7.84975 32.7334 7.78704 32.5695 7.71883C34.2129 5.76417 36.0751 4.00498 38.1203 2.47558C40.3323 6.69893 41.3252 11.4542 40.9887 16.2095C40.9635 16.4599 41.034 16.7107 41.1855 16.9117C42.0754 18.0859 42.8363 19.352 43.4556 20.6883C44.5034 22.8791 45.0624 25.2714 45.0939 27.6999C45.1173 29.8312 44.5671 31.9296 43.5005 33.7749C42.4087 35.5881 40.9045 37.1179 39.11 38.2404C37.0455 39.5359 34.7819 40.4816 32.4097 41.0396C29.6874 41.6983 26.8946 42.0206 24.0935 42C21.2924 42.0211 18.4987 41.6988 15.7759 41.0401C13.4042 40.4816 11.1415 39.5363 9.0774 38.2413C7.28296 37.1188 5.77874 35.5885 4.68697 33.7753ZM2.09373 53.0001C2.09327 49.4918 3.33061 46.0956 5.5874 43.4099C8.15272 44.9453 10.9309 46.0929 13.8318 46.8143C17.1922 47.6227 20.6378 48.0205 24.0935 47.9999C27.5469 48.021 30.9902 47.6241 34.3484 46.8166C37.2515 46.0938 40.032 44.9457 42.6 43.4099C44.8568 46.0956 46.0942 49.4918 46.0937 53.0001V58.0003L38.7649 57.9998C37.2231 54.0283 38.8171 51.7074 38.899 51.5934C39.1123 51.3064 39.1563 50.9278 39.0144 50.6001C38.8725 50.2718 38.5667 50.0443 38.2119 50.0031C37.8567 49.9619 37.5069 50.113 37.2936 50.4C37.197 50.5296 35.1522 53.3613 36.6463 57.9998H32.9838C32.4024 53.5037 28.6258 50.1057 24.0935 49.9999C19.5616 50.1057 15.785 53.5037 15.2037 57.9998H11.5406C13.0352 53.3608 10.9909 50.5291 10.8934 50.4C10.5619 49.9642 9.94121 49.8763 9.50129 50.2027C9.06184 50.5296 8.96662 51.1489 9.28797 51.5925C9.36076 51.6937 10.9684 54.0164 9.42256 58.0003H2.09373V53.0001Z" fill="#F45151"/>
<path d="M19.2463 27.1509C18.9456 27.8581 19.0989 28.6766 19.635 29.2273L22.7615 32.4372C22.8618 32.5384 22.9735 32.6276 23.0939 32.7036V33.5871L20.3866 36.2943C20.1271 36.5452 20.0227 36.9169 20.1143 37.2666C20.2058 37.6164 20.4786 37.8892 20.8284 37.9808C21.1781 38.0723 21.5498 37.9679 21.8007 37.7084L24.0936 35.4154L26.387 37.7084C26.7793 38.087 27.4028 38.0819 27.7887 37.696C28.1746 37.3101 28.1796 36.6866 27.8011 36.2943L25.0938 33.5871V32.7036C25.2147 32.6276 25.3264 32.5379 25.4266 32.4367L28.5527 29.2273C29.0888 28.6766 29.2421 27.8581 28.9413 27.1509C28.652 26.456 27.9732 26.0028 27.2202 26.001H20.9675C20.2145 26.0028 19.5356 26.456 19.2463 27.1509ZM26.9551 28.001L24.0927 30.9403L21.1612 28.001H26.9551Z" fill="#F45151"/>
<path d="M14.0925 30.9995C14.5333 30.9999 14.9224 30.7115 15.0501 30.2895C15.1783 29.8679 15.0149 29.4119 14.6482 29.1675C12.0499 27.6724 9.09002 26.9226 6.09348 26.9995C5.54096 26.9995 5.09326 27.4472 5.09326 27.9993C5.09326 28.5518 5.54096 28.9995 6.09348 28.9995C8.69496 28.9377 11.2658 29.5708 13.5413 30.8333C13.7048 30.9418 13.8966 30.9995 14.0925 30.9995Z" fill="#F45151"/>
<path d="M15.0939 32.001C12.7524 32.1136 10.486 32.8634 8.53917 34.1694C8.23796 34.3658 8.06584 34.7087 8.08782 35.0676C8.11025 35.4265 8.32311 35.7455 8.64583 35.9039C8.96855 36.0623 9.35125 36.0353 9.64833 35.8334C11.2711 34.7526 13.1502 34.1205 15.0962 34.0014C15.6483 34.0005 16.0955 33.5524 16.095 32.9998C16.0941 32.4478 15.646 32.0005 15.0939 32.001Z" fill="#F45151"/>
<path d="M33.2618 30.554C33.5685 31.0136 34.1892 31.1377 34.6488 30.8314C36.9198 29.5611 39.4924 28.9281 42.0939 28.9995C42.6464 28.9995 43.0941 28.5518 43.0941 27.9993C43.0941 27.4472 42.6464 26.9995 42.0939 26.9995C39.0974 26.9226 36.1374 27.6724 33.5392 29.1675C33.0796 29.4737 32.9555 30.0944 33.2618 30.554Z" fill="#F45151"/>
<path d="M33.0945 32.001C32.5424 32.001 32.0947 32.4487 32.0947 33.0012C32.0947 33.5533 32.5424 34.0014 33.0945 34.0014C35.0409 34.114 36.9214 34.7467 38.5401 35.8334C38.8372 36.0353 39.2199 36.0623 39.5426 35.9039C39.8653 35.7455 40.0782 35.4265 40.1006 35.0676C40.1226 34.7087 39.9505 34.3658 39.6492 34.1694C37.7024 32.8634 35.436 32.1136 33.0945 32.001Z" fill="#F45151"/>
<path d="M12.0758 16.9985C12.117 16.999 12.1577 16.9995 12.1989 16.9995C14.4438 16.9299 16.5514 15.9004 17.986 14.1718C18.3206 13.7365 18.2415 13.1126 17.8084 12.7743C17.3758 12.4365 16.751 12.5106 16.4095 12.9409C15.3328 14.2048 13.7705 14.9523 12.1111 14.9986C11.5617 14.9972 11.1108 15.4321 11.0934 15.9809C11.0884 16.2464 11.1896 16.5023 11.3736 16.6932C11.5581 16.8841 11.8103 16.994 12.0758 16.9985Z" fill="#F45151"/>
<path d="M35.9883 16.9995C36.0295 16.9995 36.0707 16.9995 36.1114 16.9985C36.3769 16.994 36.6291 16.8841 36.8136 16.6932C36.9976 16.5023 37.0988 16.2464 37.0938 15.9809C37.0709 15.4348 36.6232 15.0027 36.0762 14.9986C34.4181 14.9473 32.8576 14.2002 31.7778 12.9409C31.4363 12.5106 30.8114 12.4365 30.3788 12.7743C29.9458 13.1126 29.8666 13.7365 30.2012 14.1718C31.6359 15.9004 33.7434 16.9299 35.9883 16.9995Z" fill="#F45151"/>
<path d="M11.469 22.2194C11.1825 22.44 11.0369 22.798 11.0891 23.1559C11.1413 23.5139 11.383 23.816 11.7208 23.9456C12.0582 24.0751 12.4399 24.012 12.7178 23.7808C14.8579 22.0692 16.2582 21.8371 17.0565 21.9419C17.5271 21.9873 17.9624 22.212 18.2719 22.5695C18.5868 23.0136 19.1993 23.1244 19.6498 22.8181C20.0997 22.5119 20.2224 21.9017 19.9253 21.4453C19.3206 20.6369 18.4156 20.1058 17.4149 19.9726C15.6741 19.7016 13.6704 20.4574 11.469 22.2194Z" fill="#F45151"/>
<path d="M29.9259 22.5546C30.2234 22.2186 30.6336 22.0035 31.079 21.949C31.8878 21.8268 33.2959 22.0424 35.4689 23.7805C35.9011 24.1129 36.5195 24.0382 36.8601 23.613C37.2002 23.1873 37.1375 22.5674 36.7182 22.2191C34.5168 20.4571 32.5141 19.7023 30.7723 19.9724C29.7711 20.1056 28.8661 20.6366 28.2614 21.445C27.9616 21.9046 28.0875 22.5198 28.5439 22.8242C29.0007 23.1287 29.6169 23.0083 29.9254 22.5546H29.9259Z" fill="#F45151"/>
</svg>
