<svg width="48" height="60" viewBox="0 0 48 60" fill="none" xmlns="http://www.w3.org/2000/svg">
<path d="M0 59.0001C0 59.5521 0.447695 59.9998 0.999761 59.9998H47.0002C47.5523 59.9998 47.9999 59.5521 47.9999 59.0001V53.0001C47.9999 49.061 46.6244 45.246 44.1099 42.2138C44.8922 41.2223 44.9489 39.8403 44.2499 38.7883C43.9203 38.2861 43.4461 37.8957 42.8899 37.6686C43.7578 36.8067 44.5113 35.8376 45.1325 34.7842C46.3799 32.6332 47.0249 30.186 47.0002 27.6999C46.9695 24.9826 46.3479 22.3051 45.1787 19.8519C44.5548 18.5033 43.7986 17.2202 42.921 16.0209C43.2332 10.584 41.9382 5.17502 39.1971 0.468734C39.0511 0.235731 38.8153 0.073224 38.5457 0.0192075C38.2761 -0.0343511 37.9959 0.0251586 37.7716 0.184461C35.0328 2.09975 32.5792 4.39362 30.4845 6.99785C26.2506 5.68315 21.7178 5.68635 17.4857 7.00655C15.3947 4.40049 12.9442 2.10342 10.2082 0.184461C9.98387 0.0251586 9.70418 -0.0343511 9.4341 0.0192075C9.16447 0.073224 8.92872 0.235731 8.78269 0.468734C6.03381 5.17686 4.74245 10.5936 5.07159 16.0355C4.19725 17.2298 3.44377 18.5079 2.82167 19.8515C1.65208 22.3042 1.03043 24.9826 0.999761 27.6999C0.974583 30.186 1.61958 32.6327 2.86653 34.7838C3.48818 35.838 4.24212 36.8076 5.1105 37.67C4.55431 37.8966 4.08052 38.2866 3.75048 38.7883C3.05147 39.8403 3.10777 41.2223 3.89055 42.2138C1.37604 45.246 0 49.061 0 53.0001V59.0001ZM17.1561 57.9998C17.7064 54.6151 20.5821 52.0974 24.0098 51.9999C27.438 52.0974 30.3137 54.6151 30.8639 57.9998H17.1561ZM5.71612 41.2259C5.49548 41.0863 5.33984 40.8638 5.28536 40.6084C5.23181 40.3589 5.28079 40.098 5.42224 39.8856C5.60946 39.6031 5.92578 39.4342 6.26452 39.4356C6.45908 39.4356 6.64951 39.4914 6.81339 39.5963C9.24229 41.1504 11.9102 42.2948 14.7103 42.9833C17.7522 43.7134 20.8718 44.0719 23.9997 44.0513C27.1258 44.0723 30.2428 43.7148 33.2823 42.9856C36.0852 42.2966 38.7563 41.1513 41.1879 39.5958C41.653 39.2969 42.2715 39.4255 42.5786 39.8851C42.7196 40.098 42.7691 40.3589 42.7155 40.6084C42.661 40.8634 42.5058 41.0858 42.2852 41.225C39.6672 42.8995 36.792 44.1327 33.7744 44.8752C30.5737 45.6434 27.2915 46.021 23.9997 46C20.7057 46.021 17.4212 45.6424 14.2182 44.8734C11.2034 44.1318 8.33088 42.8995 5.71566 41.2259H5.71612ZM4.59368 33.7753C3.52663 31.9296 2.97639 29.8312 2.99974 27.6999C3.03087 25.2723 3.5898 22.88 4.63717 20.6896C5.25286 19.3603 6.01001 18.1014 6.89578 16.9346C7.00427 16.7899 7.07248 16.6187 7.09262 16.4388C7.09766 16.4004 7.09995 16.361 7.09995 16.3221V16.3198C7.09995 16.2818 7.09812 16.2433 7.09354 16.2054C6.75845 11.4528 7.74906 6.69984 9.95503 2.47695C11.9994 4.00818 13.8602 5.77058 15.4999 7.7289C15.3443 7.7939 15.1873 7.85296 15.0321 7.92162C14.5341 8.14913 14.3116 8.73461 14.5327 9.23587C14.7542 9.73666 15.3374 9.96646 15.841 9.75085C21.0325 7.42723 26.9679 7.42723 32.1594 9.75085C32.663 9.96646 33.2462 9.73666 33.4677 9.23587C33.6888 8.73461 33.4663 8.14913 32.9678 7.92162C32.8049 7.84975 32.6396 7.78704 32.4757 7.71883C34.1191 5.76417 35.9813 4.00498 38.0266 2.47558C40.2385 6.69893 41.2314 11.4542 40.895 16.2095C40.8698 16.4599 40.9403 16.7107 41.0918 16.9117C41.9817 18.0859 42.7425 19.352 43.3619 20.6883C44.4097 22.8791 44.9686 25.2714 45.0002 27.6999C45.0236 29.8312 44.4733 31.9296 43.4067 33.7749C42.315 35.5881 40.8107 37.1179 39.0163 38.2404C36.9518 39.5359 34.6881 40.4816 32.316 41.0396C29.5936 41.6983 26.8008 42.0206 23.9997 42C21.1987 42.0211 18.4049 41.6988 15.6821 41.0401C13.3105 40.4816 11.0477 39.5363 8.98365 38.2413C7.18921 37.1188 5.68499 35.5885 4.59322 33.7753H4.59368ZM1.99998 53.0001C1.99952 49.4918 3.23686 46.0956 5.49365 43.4099C8.05897 44.9453 10.8371 46.0929 13.738 46.8143C17.0985 47.6227 20.5441 48.0205 23.9997 47.9999C27.4531 48.021 30.8964 47.6241 34.2546 46.8166C37.1578 46.0938 39.9382 44.9457 42.5063 43.4099C44.7631 46.0956 46.0004 49.4918 46 53.0001V58.0003L38.6711 57.9998C37.1294 54.0283 38.7233 51.7074 38.8053 51.5934C39.0186 51.3064 39.0625 50.9278 38.9206 50.6001C38.7787 50.2718 38.4729 50.0443 38.1182 50.0031C37.7629 49.9619 37.4132 50.113 37.1999 50.4C37.1033 50.5296 35.0585 53.3613 36.5526 57.9998H32.9001C32.3187 53.5037 28.5422 50.1052 24.0098 49.9999C19.4775 50.1052 15.7009 53.5037 15.12 57.9998H11.4469C12.9415 53.3608 10.8971 50.5291 10.7996 50.4C10.4682 49.9642 9.84746 49.8763 9.40755 50.2027C8.96809 50.5296 8.87287 51.1489 9.19423 51.5925C9.26701 51.6937 10.8747 54.0164 9.32881 58.0003H1.99998V53.0001Z" fill="#00CCCC"/>
<path d="M19.1524 26.1499C18.8517 26.8572 19.005 27.6756 19.5411 28.2259L22.6676 31.4362C22.7679 31.5374 22.8795 31.6266 22.9999 31.7026V32.9999C22.9999 34.1045 22.1045 34.9999 21 34.9999C19.8954 34.9999 19 34.1045 19 32.9999C19 32.4474 18.5523 31.9997 17.9998 31.9997C17.4477 31.9997 17 32.4474 17 32.9999C17.0041 34.8649 18.2955 36.4794 20.1137 36.8932C20.4497 38.755 22.11 40.082 23.9997 40.0001C25.8898 40.082 27.5501 38.755 27.8861 36.8932C29.7044 36.4794 30.9957 34.8649 30.9999 32.9999C30.9999 32.4474 30.5522 31.9997 30.0001 31.9997C29.4476 31.9997 28.9999 32.4474 28.9999 32.9999C28.9999 34.1045 28.1045 34.9999 26.9999 34.9999C25.8953 34.9999 24.9999 34.1045 24.9999 32.9999V31.7026C25.1208 31.6262 25.2325 31.5369 25.3327 31.4353L28.4588 28.2259C28.9948 27.6756 29.1482 26.8572 28.8474 26.1499C28.5581 25.4546 27.8793 25.0014 27.1262 25H20.8736C20.1206 25.0014 19.4417 25.4546 19.1524 26.1499ZM25.8541 36.8126C25.5859 37.5904 24.8186 38.0816 23.9997 38.0001C23.1817 38.0811 22.4149 37.5895 22.148 36.8117C22.8654 36.5957 23.5071 36.1818 23.9997 35.6174C24.4932 36.1828 25.1359 36.597 25.8541 36.8126ZM26.8612 27L23.9988 29.9388L21.0673 27H26.8612Z" fill="#00CCCC"/>
<path d="M13.9987 29.9976C14.4396 29.998 14.8287 29.7096 14.9564 29.288C15.0846 28.8659 14.9211 28.4105 14.5545 28.1656C11.9562 26.6709 8.99627 25.9207 5.99973 25.9976C5.44721 25.9976 4.99951 26.4453 4.99951 26.9978C4.99951 27.5499 5.44721 27.9976 5.99973 27.9976C8.60122 27.9358 11.172 28.5689 13.4476 29.8318C13.611 29.9399 13.8028 29.998 13.9987 29.9976Z" fill="#00CCCC"/>
<path d="M13.9997 30.999C11.6582 31.1116 9.39183 31.861 7.44496 33.167C7.14421 33.3638 6.97209 33.7067 6.99407 34.0656C7.01604 34.424 7.2289 34.7435 7.55162 34.9019C7.87435 35.0603 8.25704 35.0333 8.55458 34.831C10.1769 33.7502 12.0565 33.1185 14.002 32.999C14.5545 32.9985 15.0017 32.5499 15.0008 31.9979C15.0004 31.4453 14.5522 30.9981 13.9997 30.999Z" fill="#00CCCC"/>
<path d="M33.168 29.5525C33.4747 30.0117 34.0954 30.1362 34.555 29.8295C36.826 28.5592 39.3987 27.9261 42.0001 27.9975C42.5527 27.9975 43.0004 27.5498 43.0004 26.9978C43.0004 26.4452 42.5527 25.9976 42.0001 25.9976C39.0036 25.9207 36.0437 26.6709 33.4454 28.1655C32.9858 28.4722 32.8618 29.0929 33.168 29.5525Z" fill="#00CCCC"/>
<path d="M34.0002 30.999C33.4477 30.999 33 31.4467 33 31.9988C33 32.5513 33.4477 32.999 34.0002 32.999C35.9462 33.1116 37.8267 33.7442 39.4453 34.831C39.7429 35.0333 40.1256 35.0603 40.4483 34.9019C40.771 34.7435 40.9839 34.424 41.0059 34.0656C41.0278 33.7067 40.8557 33.3638 40.555 33.167C38.6081 31.861 36.3417 31.1116 34.0002 30.999Z" fill="#00CCCC"/>
<path d="M10.0007 22.9991C10.1559 22.9991 10.3088 22.963 10.447 22.8934C15.661 20.2851 18.1952 22.6137 18.2927 22.7062C18.6044 23.0175 19.0832 23.0884 19.4719 22.8801C19.8601 22.6723 20.0665 22.2347 19.9805 21.8025C19.579 19.7953 17.3945 15.999 11.9998 15.999C11.4477 15.999 11 16.4467 11 16.9988C11 17.5513 11.4477 17.999 11.9998 17.999C13.7663 17.9015 15.4884 18.5721 16.7239 19.8383C14.2589 19.419 11.7247 19.8662 9.55256 21.1045C9.13737 21.3118 8.91947 21.7778 9.02659 22.2292C9.13325 22.681 9.53654 22.9996 10.0007 22.9991Z" fill="#00CCCC"/>
<path d="M28.5218 22.8705C28.9064 23.0788 29.3815 23.0157 29.6983 22.7144C29.8045 22.6142 32.3401 20.2869 37.5527 22.8934C37.8722 23.0532 38.2526 23.0303 38.5511 22.8335C38.8491 22.6366 39.0198 22.2956 38.9983 21.939C38.9768 21.5824 38.7667 21.2642 38.4472 21.1045C36.2664 19.8617 33.7212 19.4158 31.2478 19.8447C32.4889 18.5689 34.2233 17.8955 35.9999 17.999C36.552 17.999 36.9997 17.5513 36.9997 16.9988C36.9997 16.4467 36.552 15.999 35.9999 15.999C30.6051 15.999 28.4207 19.7953 28.0197 21.8026C27.9359 22.2301 28.1391 22.6623 28.5218 22.8705Z" fill="#00CCCC"/>
</svg>
