<svg width="28" height="14" viewBox="0 0 28 14" fill="none" xmlns="http://www.w3.org/2000/svg">
<g clip-path="url(#clip0_3723_11093)">
<path d="M14.5932 3.22402L15.9547 2.64726C16.0378 2.18578 16.3718 1.81631 16.8016 1.70163L16.8752 0.810756C16.8857 0.683676 16.967 0.575204 17.0821 0.534496C17.1972 0.493787 17.3244 0.528507 17.406 0.623041L17.7622 1.03554L17.9807 0.232392C18.0171 0.0986462 18.1315 0.00475334 18.2639 -9.45838e-05C18.3962 -0.00440781 18.5166 0.0803952 18.5617 0.211218L20.4471 5.67261C21.8034 6.04241 22.9877 6.95368 23.7151 8.19368C24.3814 9.32944 24.5883 10.6307 24.2978 11.8576C24.1281 12.5747 23.8057 13.0473 23.476 13.3571H23.7353C23.7378 13.3571 23.7402 13.3571 23.7426 13.3572C24.9694 13.3886 26.1062 12.6563 26.6371 11.4927C26.71 11.3328 26.8925 11.2654 27.0447 11.3419C27.1968 11.4185 27.2611 11.61 27.1882 11.7698C26.5666 13.1325 25.2505 13.9998 23.8175 13.9998C23.789 13.9998 17.9841 13.9998 17.9841 13.9998C17.8154 13.9998 17.6786 13.8562 17.6786 13.679C17.6786 12.8154 18.3346 12.4218 18.9135 12.2773C18.6428 11.7231 18.6194 11.2358 18.6501 10.917L18.5703 10.9058L16.739 13.8542C16.6826 13.945 16.5863 13.9997 16.483 13.9997H15.371C15.2598 13.9997 15.1573 13.9362 15.1036 13.8339C15.0498 13.7317 15.0533 13.6068 15.1126 13.5079C15.1244 13.4882 16.2725 11.5742 16.8897 10.5026V5.11197C16.7988 5.12295 16.6968 5.12847 16.6067 5.12847C15.7203 5.12847 14.8867 4.6034 14.4379 3.67238C14.4375 3.67164 14.426 3.6464 14.4241 3.64155C14.361 3.47726 14.4367 3.29029 14.5932 3.22402Z" fill="#E0E0E0"/>
</g>
<g clip-path="url(#clip1_3723_11093)">
<path d="M5.89297 6.3028L6.86546 5.89083C6.92485 5.5612 7.16341 5.29729 7.47041 5.21538L7.523 4.57904C7.53052 4.48827 7.58852 4.41079 7.67075 4.38171C7.75301 4.35263 7.84384 4.37743 7.90212 4.44496L8.15654 4.7396L8.31263 4.16592C8.33863 4.07039 8.42032 4.00332 8.51489 3.99986C8.60942 3.99678 8.69538 4.05735 8.72766 4.1508L10.0744 8.0518C11.0431 8.31594 11.8891 8.96684 12.4086 9.85255C12.8846 10.6638 13.0324 11.5933 12.8249 12.4697C12.7036 12.9819 12.4734 13.3194 12.2378 13.5407H12.4231C12.4248 13.5407 12.4266 13.5407 12.4283 13.5408C13.3046 13.5632 14.1166 13.0401 14.4958 12.209C14.5478 12.0948 14.6782 12.0466 14.7869 12.1013C14.8956 12.156 14.9415 12.2928 14.8894 12.407C14.4454 13.3803 13.5053 13.9998 12.4818 13.9998C12.4614 13.9998 8.31508 13.9998 8.31508 13.9998C8.19454 13.9998 8.09684 13.8972 8.09684 13.7706C8.09684 13.1538 8.5654 12.8726 8.97895 12.7694C8.78559 12.3736 8.76888 12.0255 8.7908 11.7978L8.73377 11.7898L7.42569 13.8958C7.38539 13.9606 7.31664 13.9997 7.24288 13.9997H6.44859C6.36913 13.9997 6.29592 13.9544 6.25753 13.8813C6.21912 13.8083 6.2216 13.7191 6.26396 13.6484C6.2724 13.6344 7.09246 12.2672 7.53331 11.5018V7.65133C7.46842 7.65918 7.39555 7.66312 7.33119 7.66312C6.69807 7.66312 6.10263 7.28807 5.78203 6.62306C5.78176 6.62252 5.77354 6.6045 5.77223 6.60104C5.72713 6.48368 5.78118 6.35013 5.89297 6.3028Z" fill="#E0E0E0"/>
</g>
<g clip-path="url(#clip2_3723_11093)">
<path d="M1.00258 9.38158L1.58607 9.1344C1.62171 8.93662 1.76484 8.77827 1.94904 8.72913L1.9806 8.34732C1.98511 8.29286 2.01991 8.24637 2.06925 8.22893C2.1186 8.21148 2.1731 8.22636 2.20807 8.26687L2.36072 8.44366L2.45438 8.09945C2.46997 8.04213 2.51899 8.00189 2.57573 7.99982C2.63245 7.99797 2.68403 8.03431 2.70339 8.09038L3.51141 10.431C4.09267 10.5895 4.60023 10.98 4.91198 11.5114C5.19753 11.9982 5.28622 12.5559 5.16172 13.0817C5.08896 13.389 4.95081 13.5915 4.80949 13.7243H4.92064C4.92169 13.7243 4.92273 13.7243 4.92378 13.7244C5.44953 13.7378 5.93675 13.424 6.16426 12.9253C6.1955 12.8568 6.2737 12.8279 6.33893 12.8607C6.40415 12.8935 6.4317 12.9756 6.40044 13.0441C6.13404 13.6281 5.56998 13.9998 4.95588 13.9998C4.94363 13.9998 2.45584 13.9998 2.45584 13.9998C2.38352 13.9998 2.3249 13.9382 2.3249 13.8623C2.3249 13.4922 2.60604 13.3235 2.85417 13.2616C2.73815 13.0241 2.72812 12.8152 2.74128 12.6786L2.70706 12.6738L1.92221 13.9374C1.89803 13.9763 1.85678 13.9997 1.81252 13.9997H1.33595C1.28827 13.9997 1.24435 13.9725 1.22132 13.9287C1.19827 13.8849 1.19975 13.8313 1.22517 13.789C1.23024 13.7805 1.72227 12.9602 1.98678 12.501V10.1907C1.94785 10.1954 1.90413 10.1978 1.86551 10.1978C1.48564 10.1978 1.12837 9.97274 0.936015 9.57373C0.935855 9.57341 0.930923 9.5626 0.930137 9.56052C0.903075 9.49011 0.935506 9.40998 1.00258 9.38158Z" fill="#008080"/>
</g>
<defs>
<clipPath id="clip0_3723_11093">
<rect width="13.3333" height="14" fill="white" transform="matrix(-1 0 0 1 27.4763 0)"/>
</clipPath>
<clipPath id="clip1_3723_11093">
<rect width="9.52381" height="10" fill="white" transform="matrix(-1 0 0 1 15.0952 4)"/>
</clipPath>
<clipPath id="clip2_3723_11093">
<rect width="5.71429" height="6" fill="white" transform="matrix(-1 0 0 1 6.52393 8)"/>
</clipPath>
</defs>
</svg>
